<svg xmlns="http://www.w3.org/2000/svg" viewBox="0 0 260.33424 295.82387"><defs><style>.cls-1{fill:#fff;}.cls-2{fill:#70706f;}.cls-3{fill:#b16848;}.cls-4{fill:#f59d73;}.cls-5{fill:#eff9f6;}.cls-6{fill:#ff998e;}.cls-7{fill:#e4b182;}.cls-8{fill:none;stroke:#000;stroke-miterlimit:10;stroke-width:3px;}.cls-9{fill:#f9faf3;}</style></defs><title>tom and jerry hugging</title><g id="Layer_6" data-name="Layer 6"><path class="cls-1" d="M29.83406,80.48616c3.23533.59181,6.4538,1.2695,9.672,1.95177q4.8162,1.0712,9.60917,2.24946c6.38736,1.58271,12.72436,3.37064,19.01546,5.3152q4.70655,1.49635,9.35277,3.18071c3.09543,1.124,6.181,2.28626,9.19606,3.6205,6.01277,2.64416,12.03484,5.56613,17.0689,9.84563a54.12321,54.12321,0,0,0-8.39886-5.1056c-2.92-1.48994-5.928-2.80253-8.96744-4.03064-6.07733-2.46309-12.283-4.61469-18.552-6.55806-6.24687-2.01827-12.5731-3.7876-18.90756-5.52667-6.33767-1.73106-12.7084-3.34343-19.0885-4.9423M29.8239,70.48457A10.00091,10.00091,0,0,0,27.40319,90.1862c6.04427,1.51473,12.4812,3.1399,18.8845,4.8889,5.94586,1.6324,12.2809,3.39673,18.46807,5.39573q.0566.01824.11343.0359c6.51356,2.01916,12.32187,4.07146,17.7568,6.27423,3.2333,1.30644,5.829,2.47144,8.17856,3.6703l.05911.02993a44.23589,44.23589,0,0,1,6.85709,4.1474,10,10,0,0,0,12.50467-15.59816c-5.98907-5.09134-12.92126-8.4786-19.52033-11.3806-3.3657-1.48944-6.70467-2.739-9.8084-3.866-3.2508-1.17687-6.5234-2.28977-9.7361-3.3112l-.07673-.024c-6.71107-2.07436-13.29317-3.914-19.56347-5.46766-3.39-.83064-6.69317-1.60387-9.8432-2.30447l-.0972-.02109c-3.5097-.74408-6.68063-1.4086-9.9466-2.006a10.05488,10.05488,0,0,0-1.80949-.16479Z" transform="translate(-19.83217 -2.08821)"/><path class="cls-1" d="M93.8849,113.0739c2.7438,0,5.48618.09441,8.21866.23823l-4.60737.07733-2.3.0287c-.766.03066-1.531.1015-2.29593.15027L88.312,113.85l-4.56686.51347-2.28124.26207-2.26943.35273c-1.51156.2425-3.0287.45076-4.535.721-3.00114.60776-6.0106,1.17193-8.9727,1.95233a163.13289,163.13289,0,0,0-17.5942,5.2654l-4.30594,1.61057c-1.4174.582-2.85263,1.125-4.25716,1.7397-2.84524,1.15083-5.6164,2.46907-8.39537,3.78287a127.64093,127.64093,0,0,1,16.69047-7.85041A146.8844,146.8844,0,0,1,65.45089,116.681c2.9879-.76023,6.0247-1.29567,9.0501-1.878,1.51877-.257,3.04827-.45189,4.5715-.68073l2.28713-.32827,2.30327-.19536a92.21472,92.21472,0,0,1,10.222-.52476m0-10h-.0001a101.80809,101.80809,0,0,0-11.19367.57127l-2.17667.18463q-.28869.0245-.57556.06566l-2.28713.32827-.06487.00954c-.51267.077-1.0261.1499-1.53953.22286-1.03391.14694-2.103.29891-3.215.4871q-.11089.01877-.22133.04l-1.546.29463c-2.61073.49517-5.31036,1.0072-8.07993,1.71187a155.56214,155.56214,0,0,0-18.786,5.8903,138.34586,138.34586,0,0,0-18.0012,8.47327,9.99983,9.99983,0,0,0,9.21024,17.7374l.3224-.15247c2.61193-1.2351,5.079-2.40173,7.54856-3.4006q.1305-.0528.25954-.10927c.75623-.331,1.5752-.65781,2.44223-1.0038.485-.19357.96992-.38722,1.4531-.58465l4.09582-1.532a151.80486,151.80486,0,0,1,16.45158-4.92322q.12694-.0299.253-.06312c2.176-.57331,4.46173-1.03045,6.88167-1.51441l1.40508-.2822c.81179-.14392,1.66415-.27363,2.56452-.41062.5645-.08594,1.129-.17194,1.69283-.26241l2.02422-.31448,2.08371-.23938,4.2911-.48243,4.33524-.26605c.32843-.02093.63316-.04329.93793-.06582.34154-.02527.68311-.052,1.02495-.06836l2.14529-.02678,4.65043-.078a10,10,0,0,0,.3577-19.98477c-3.2228-.16963-6.08307-.25207-8.7442-.25207Z" transform="translate(-19.83217 -2.08821)"/><path class="cls-1" d="M253.36212,12.0882a58.94393,58.94393,0,0,1,13.385,1.49283l3.41895.79494-2.93946,1.92236c-.14547.09523-14.62013,9.73782-17.2959,26.793-.82322,5.25194-.39746,11.02876.05271,17.14453,1.04007,14.13476,2.21683,30.11129-11.47359,45.84858a32.9889,32.9889,0,0,1,6.41795,10.18994l1.40529,4.57718-3.76565-2.95706c-.65917-.51752-2.7627-1.78023-5.07028-3.09764,6.93164,8.7827,8.19435,14.3804,8.25488,14.66359l1.07712,5.05128-3.61524-3.689c-2.81347-2.871-6.79564-3.60742-10.10292-3.60747q-.2617,0-.51721.00594a14.19239,14.19239,0,0,1,3.51759,4.08641l1.66112,3.105-3.38965-.95366a23.7904,23.7904,0,0,0-6.45106-.92737,19.50642,19.50642,0,0,0-3.15828.25014c9.74411,7.16017,15.62694,24.35106,9.17288,41.05812-6.53323,16.90623-20.27542,35.39546-21.61723,37.18164-.74024,1.50977-8.35154,17.374-9.9453,34.041a172.0043,172.0043,0,0,0-.39647,30.43555l.10841,1.05368-.95706.45413c-.24806.11816-23.39259,10.9053-57.91553,10.90622q-4.07814,0-8.35641-.21094C95.55567,285.71579,86.2329,276.55762,85.85549,276.169l-.356-.36625-.05806-.50781a152.944,152.944,0,0,1-.35159-19.58789,77.54779,77.54779,0,0,1-13.25925,1.17288c-14.14352,0-24.94471-4.2097-29.07569-9.44923-6.3057-7.99706-8.60158-23.18947,1.25777-37.64941,9.14894-13.41895,29.38623-30.35547,33.17582-33.47464a16.95107,16.95107,0,0,1,1.38282-6.88671c-.91264-2.46971-3.55958-11.22365,2.50777-16.38865a15.465,15.465,0,0,1,10.36973-4.0232,24.82122,24.82122,0,0,1,4.2758.44361c.22265.03759.43606.07418.63965.10641a8.28882,8.28882,0,0,1,2.90817-1.23047L94.583,141.38133a53.89825,53.89825,0,0,0-4.63917-4.36618c-5.07224-4.42235-10.82177-9.43559-11.75977-19.23388-.58594-5.313.56106-9.72171,3.41165-13.08253,3.81882-4.50294,9.57906-5.76759,12.02047-6.11083,1.53958-6.83841,8.38529-36.53711,12.09082-40.88135,2.48065-2.90816,4.90551-3.58611,6.6254-3.58611a6.35918,6.35918,0,0,1,1.38095.15005l1.82424-1.72117a43.17088,43.17088,0,0,1,2.2583-16.48783c2.894-9.00388-3.6006-18.29635-3.66654-18.38911l-2.66064-3.74418,4.35647,1.45118c.77735.25882,18.83834,6.34864,26.35353,14.80276a53.81263,53.81263,0,0,1,11.87106,4.64453,39.30348,39.30348,0,0,0,6.47952,2.74412c-2.64653-3.77247-13.62405-14.78759-23.959-19.39894l-7.50876-3.35006,8.208.48288c.51024.03029,12.59811.83106,22.03318,9.17677,2.42482,2.14552,4.71482,4.27541,6.73441,6.15476,4.64059,4.31694,9.04,8.4097,11.22552,8.91065.34478-1.86571-1.15229-8.45653-3.4687-15.086l-1.3633-3.90182,3.54883,2.11965a25.76708,25.76708,0,0,1,10.82324,16.27047c7.84285-6.127,36.6012-26.861,66.55939-26.861M184.56155,44.68162l-.31741-2.77682A23.66063,23.66063,0,0,0,178.292,28.64309c1.44623,4.92624,2.75876,10.92918,1.32811,12.94482a2.3317,2.3317,0,0,1-1.94534,1.01024c-3.18359,0-7.35936-3.88476-13.68065-9.76512-2.00682-1.8677-4.28224-3.98441-6.6797-6.10453A33.64829,33.64829,0,0,0,146.30667,20.394c8.8037,6.14994,16.97653,14.64259,17.70311,17.44336a1.91149,1.91149,0,0,1-.2754,1.69582,2.85322,2.85322,0,0,1-2.44466,1.11553c-2.08112,0-5.0129-1.35442-8.5817-3.13847-4.92482-2.46288-8.82718-3.97118-11.59965-4.48294l-.52928-.09765-.34618-.41212c-4.84377-5.75829-15.72025-10.58788-21.5293-12.874,1.917,3.9673,4.1167,10.59083,1.9487,17.33594C117.646,46.332,118.584,52.833,118.59373,52.89745l.11818.77735-4.353,4.11082-.94435-.48729a2.64994,2.64994,0,0,0-1.02876-.17909c-.9878,0-2.59208.41872-4.39653,2.53409-2.61035,3.06053-8.5493,26.54929-11.67971,40.63576l-.24706,1.11083-1.13624.06152c-.06735.00388-7.05758.46142-11.05664,5.19383-2.28565,2.70559-3.19429,6.34523-2.70118,10.81835.82618,8.63041,5.86965,13.02783,10.74712,17.2803A55.14619,55.14619,0,0,1,96.8872,139.457l.12453.16017,9.94529,14.73142-5.4497-3.00489a2.33511,2.33511,0,0,0-.909-.15466,5.04,5.04,0,0,0-2.97232,1.144l-.48141.3564-.59376-.07424c-.40041-.04881-.84424-.124-1.32718-.206a22.18353,22.18353,0,0,0-3.78687-.40477,12.47636,12.47636,0,0,0-8.41331,3.312c-5.29147,4.50394-1.48194,13.46976-1.44288,13.55959l.29053.66894-.34718.64159a13.76117,13.76117,0,0,0-1.30806,6.70022l.05518.77831-.60647.49217c-.23388.18947-23.52,19.15529-33.17335,33.31346-9.0073,13.211-7.02977,26.93848-1.38036,34.1026,3.71424,4.71082,13.865,8.29114,26.75067,8.29114A75.19817,75.19817,0,0,0,86.377,252.417l1.88429-.37206-.0957,1.91893c-.00636.127-.61135,12.53224.19335,20.40724,1.97994,1.53223,12.88624,8.62793,46.65918,10.334q4.2114.21267,8.227.20758c29.93271,0,51.05508-8.2374,55.66407-10.20075a182.30558,182.30558,0,0,1,.48824-29.93458c1.72171-18.0117,9.96-34.52736,10.30959-35.22165l.1436-.23047c.14647-.19336,14.72558-19.55859,21.29681-36.56741,6.33206-16.38771-.44823-34.17383-10.74118-39.12741l-2.75882-1.32766,2.74023-1.36622a17.89439,17.89439,0,0,1,7.51069-1.41356,25.11165,25.11165,0,0,1,2.98249.18068,6.66254,6.66254,0,0,0-4.17791-1.605c-.09325,0-.18709.00223-.282.00679L214.085,128.707l11.833-3.53664a27.361,27.361,0,0,1,7.19731-.96452,19.52,19.52,0,0,1,7.94821,1.54557,64.23063,64.23063,0,0,0-11.18359-15.12253l-5.20311-5.43994,6.89058,3.03024c1.26271.55517,4.98442,2.56788,8.14848,4.39359a24.15142,24.15142,0,0,0-4.26565-5.29835l-1.18554-1.00783,1.05077-1.14747C249.168,90.023,248.01173,74.31492,246.9912,60.45656c-.46389-6.29347-.90136-12.23735-.02341-17.83011,2.16894-13.82712,11.22557-22.92042,15.86912-26.76559a56.37519,56.37519,0,0,0-9.23539-.74164c-33.469-.00036-66.53022,27.45008-66.90132,27.76264l-2.13865,1.79976M253.36214,2.08821c-24.83438,0-48.48833,12.52319-62.40686,21.63439a34.2934,34.2934,0,0,0-9.84609-9.62792l-3.55076-2.12082a10.00185,10.00185,0,0,0-13.64475,3.34388,50.4937,50.4937,0,0,0-26.05142-9.99547L129.64885,4.839q-.29757-.01751-.59265-.01744a9.98624,9.98624,0,0,0-6.45285,2.3652c-1.65226-.62654-2.9192-1.06226-3.6191-1.29529l-4.35517-1.45076a10,10,0,0,0-11.31183,15.28l2.60813,3.67027c1.21383,1.81429,3.35337,6.48951,2.35023,9.61044a59.05855,59.05855,0,0,0-2.6214,12.50966,20.75208,20.75208,0,0,0-7.55536,5.70575c-1.5654,1.83527-5.1183,5.9988-12.88163,39.25358A27.12311,27.12311,0,0,0,73.96908,98.2308c-3.223,3.79992-6.82987,10.45234-5.73213,20.57924,1.09784,11.23,6.86067,18.11606,11.92952,22.87291a28.28153,28.28153,0,0,0-5.56751,3.732c-7.52282,6.404-8.40347,15.93138-6.51286,23.82528-.16625.6292-.32151,1.3062-.45457,2.0241-7.92295,6.727-23.59874,20.73555-31.88121,32.88367-12.69942,18.62524-9.34183,38.7023-.848,49.47442,6.545,8.30129,20.35,13.25746,36.92824,13.25746q1.55538,0,3.12889-.05972c.05512,3.30527.21175,6.69171.54711,9.61459l.05758.50385a10.00021,10.00021,0,0,0,2.76477,5.83429l.356.36624c2.80912,2.8927,15.13659,12.5018,55.67736,14.54929,2.93028.14834,5.912.22363,8.86082.22363,36.85881-.001,61.96712-11.75958,62.21647-11.87833l.94294-.44748a10,10,0,0,0,5.66065-10.058l-.10842-1.05371a164.62112,164.62112,0,0,1,.40366-28.4607c1.27571-13.34107,7.05832-26.4962,8.60059-29.81318,3.2294-4.38385,15.902-22.10933,22.335-38.75623a48.78954,48.78954,0,0,0,.90607-33.28976,10.00022,10.00022,0,0,0,12.429-11.72841l-1.07712-5.05129c-.07943-.37166-.21769-.938-.44806-1.68331a9.99561,9.99561,0,0,0,.8086-7.77511l-1.40529-4.57717a34.275,34.275,0,0,0-3.47139-7.1972c11.13412-16.83419,9.883-33.83074,8.94074-46.6368-.40741-5.53495-.79148-10.75183-.14664-14.86547,1.90079-12.11551,12.4032-19.62857,12.95935-20.01788l2.86993-1.87689A10,10,0,0,0,272.43073,4.6358l-3.41895-.79494a69.17784,69.17784,0,0,0-15.64964-1.75265Zm-68.802,52.59356a9.99813,9.99813,0,0,0,6.44028-2.34891l2.13864-1.79977c.2453-.204,23.29834-19.17124,48.70786-24.201a49.876,49.876,0,0,0-4.75827,14.74474c-1.05676,6.73194-.5553,13.53541-.07036,20.11488.90434,12.28061,1.762,23.91711-7.38854,35.25116l-.92733-.40781a10,10,0,0,0-11.25225,16.066l3.84055,4.01533-10.06937,3.00949a10.00027,10.00027,0,0,0-2.22741,18.18859,9.99371,9.99371,0,0,0,4.31718,3.99922l2.75882,1.32766c4.75435,2.288,10.54877,14.09188,5.74965,26.51229-6.02029,15.58271-19.80936,33.95995-19.94794,34.14377-.1783.23653-.35188.48859-.50853.74l-.14358.23047q-.23991.385-.44412.79065c-.9636,1.91365-9.46788,19.25971-11.3326,38.76735a202.509,202.509,0,0,0-.87312,24.06929,146.4281,146.4281,0,0,1-45.32453,7.01761c-2.56364,0-5.162-.06561-7.72276-.19489-21.35128-1.07855-32.47336-4.3854-37.5191-6.47329-.15757-5.33921.0307-11.35752.15-13.78571l.09554-1.91577a9.9996,9.9996,0,0,0-11.92472-10.3087l-1.88429.37205a65.152,65.152,0,0,1-12.57835,1.258c-11.51835,0-17.888-3.29211-18.905-4.49135-2.88176-3.65465-4.78853-12.61006,1.797-22.26906,7.29394-10.69764,25.00394-26.13594,31.21241-31.18188l.60659-.4923a10,10,0,0,0,3.67347-8.47193l-.05517-.77829a3.93783,3.93783,0,0,1,.26985-1.496l.20538-.37956a10.00019,10.00019,0,0,0,.37735-8.74277l-.24649-.56755a9.81,9.81,0,0,1-.57754-2.60023,1.9647,1.9647,0,0,1,1.21692-.3891,14.46633,14.46633,0,0,1,2.11794.26442c.53494.09094,1.1477.19505,1.78623.27289l.56353.07052a9.99957,9.99957,0,0,0,4.48729-.46444l1.7373.95791a10,10,0,0,0,13.11653-14.35241l-9.94529-14.73142q-.1875-.27774-.3933-.54246l-.12453-.16018q-.21016-.27026-.43841-.52577a63.56589,63.56589,0,0,0-5.84876-5.57041c-4.67959-4.07994-6.9443-6.23611-7.37189-10.70235q-.00679-.07148-.0147-.14283a4.95661,4.95661,0,0,1,.40041-3.26923c.74621-.883,2.8805-1.53956,4.11724-1.67048l.97735-.05287A9.99993,9.99993,0,0,0,105.824,103.571l.24706-1.11083c3.39636-15.28322,7.11993-28.91827,9.15818-34.71244a9.98975,9.98975,0,0,0,5.99565-2.69168l4.353-4.11082a10,10,0,0,0,3.02047-8.77341l-.09625-.63311a30.84306,30.84306,0,0,1,1.67049-11.49895q.43528-1.35428.724-2.68951a12.78029,12.78029,0,0,1,1.68382,1.60457l.34171.40676a9.9999,9.9999,0,0,0,5.84282,3.40218l.52929.09765c.83658.15441,3.38446.814,8.94106,3.59282,4.59135,2.29523,8.7417,4.19453,13.05453,4.19453a13.28429,13.28429,0,0,0,6.332-1.57049c3.284,2.24144,6.43672,3.5199,10.053,3.5199q.375,0,.74728-.02271a10.00441,10.00441,0,0,0,6.138,2.10633Z" transform="translate(-19.83217 -2.08821)"/></g><g id="Layer_5" data-name="Layer 5"><path class="cls-2" d="M236.42148,106.17168c20.47105-22.36768,9.21109-45.35522,12.028-63.313s17.95775-27.8169,17.95775-27.8169c-38.38029-8.92459-80.6731,26.69274-80.6731,26.69274A24.62361,24.62361,0,0,0,175.21,23.9664s5.98592,17.13175,2.46479,17.13175-10.21127-7.39437-19.3662-15.493-21.12676-8.80281-21.12676-8.80281c12.26887,5.4742,26.40845,20.42253,25.35212,21.831s-4.92958-.35211-9.15493-2.46479-8.66149-4-11.99806-4.61635c-7.09876-8.43939-26.03011-14.74984-26.03011-14.74984s7.04225,9.85915,3.87324,19.71831-2.11268,16.60563-2.11268,16.60563l-3.009,2.839S110.67306,54.19551,106.848,58.68,94.84535,99.964,94.84535,99.964s-17.0148.92329-15.16823,17.67429c1.18708,12.39837,10.55181,16.6191,16.09151,22.81829l6.463,9.57334s-2.29709-1.26686-5.49669,1.09678c-2.974-.36812-8.48445-2.22867-14.68364,3.04723S80.20471,169.474,80.20471,169.474a15.10666,15.10666,0,0,0-1.48485,7.51816s-23.5757,19.12516-33.468,33.6339-6.72678,29.01747-1.319,35.87615c5.35539,6.79221,22.68639,11.3432,42.73483,7.38627,0,0-.65948,13.18976.2638,21.23552,0,0,8.83714,9.10093,48.01074,11.0794s65.55312-10.55181,65.55312-10.55181a171.88823,171.88823,0,0,1,.39569-30.73215c1.71467-17.93808,10.15612-34.68908,10.15612-34.68908s14.77253-19.52085,21.49931-36.93133-.52759-35.74426-11.48941-41.02017c0,0,5.29022-2.63795,13.73167-.26379,0,0-3.03364-5.6716-8.44145-5.4078,0,0,11.4751-3.42934,17.93808,3.16554,0,0-1.71467-8.04576-13.32166-20.18034,2.06625.90853,7.96982,3.2512,12.53028,7.12247C243.494,116.715,239.66894,108.933,236.42148,106.17168Z" transform="translate(-19.83217 -2.08821)"/><path class="cls-3" d="M167.24589,170.21437a41.91859,41.91859,0,0,1,3.46672-2.60615c.09277-.27364.18989-.61676.28266-.8904l.39815-2.64711-.15055-2.85988v-7.27566c-3.05514-7.822-8.307-16.21733-16.42454-18.36775l-31.222-8.27107a30.02141,30.02141,0,0,0-5.74516-1.12752,9.65025,9.65025,0,0,0-5.51607,1.25914c-2.09129-.04818-6.352,3.4417-6.86738,9.66392s2.51539,14.22222,2.51539,14.22222l-.79964,3.66667s-.64481,1.22222-4.5337-.66667-10.77778-3-10.77778-3a28.03522,28.03522,0,0,0-6.96954,1.113,9.58336,9.58336,0,0,0-5.35734,4.21892,10.69316,10.69316,0,0,0-.56822,7.44781,26.13993,26.13993,0,0,0,6.26544,11.38464,59.43306,59.43306,0,0,0,9.98635,8.48957c6.45727,4.58664,13.72529,8.85188,21.64546,8.78485l1.66454-.77212,2.38506,1.15362,3.27453,1.23322,17.49256,3.23,4.93567-2.10492,9.03661-4.67664C160.25922,184.45958,161.20279,175.2153,167.24589,170.21437Z" transform="translate(-19.83217 -2.08821)"/><path class="cls-4" d="M132.01684,35.50426c-3.622-.6051-7.25348-1.3382-10.88757-1.7735a.51535.51535,0,0,1-.14057-.046l-.01782.00067a.5003.5003,0,0,1,0-1c3.0719-.06573,5.9997-.35821,9.00482-.299-3.57641-5.22082-8.3233-10.90637-13.48864-13.736a23.147,23.147,0,0,1,3.1159,13.96356c-.291,3.61505-1.42993,7.1001-2.17242,10.65s-1.071,7.338.218,10.7279l-1.22161,1.43176a.47363.47363,0,0,1,.32037.06232c4.25079-4.11505,11.89581-10.48553,19.77771-11.97437C136.525,43.51176,134.827,39.98827,132.01684,35.50426Z" transform="translate(-19.83217 -2.08821)"/><path class="cls-4" d="M218.91274,99.56829a11.08455,11.08455,0,0,1,2.15864-6.59488c2.37416-3.29744,9.10093-5.5397,9.10093-5.5397-6.463-3.42934-13.32166,2.50606-13.32166,2.50606,2.37416-10.55182,17.80618-13.58546,17.80618-13.58546s-.92328-.65949-5.70068-1.58277-10.52272,3.16554-10.52272,3.16554c4.22072-7.782,3.16554-17.41049,3.16554-17.41049-.92328,11.0794-9.62853,19.52085-15.30013,12.79407s-1.9033-22.06687-1.9033-22.06687l-4.29319,6.61827-2.90444,5.29249s9.23283-19.425,25.72-31.07993,37.79646-12.2415,37.79646-12.2415S249.86978,31.337,248.09382,44.41458s3.3496,28.98665-.26261,40.24477-11.40973,21.51233-11.40973,21.51233l-.77834.75142L231.29,104.50379l-6.4978-2.256-4.5039-1.123-1.37552-.5128Z" transform="translate(-19.83217 -2.08821)"/><path class="cls-5" d="M185.19525,110.77959S178.996,116.715,166.09466,114.077c-9.10059-1.86078-12.06659-7.79065-13.02429-11.12305a9.82918,9.82918,0,0,1-.21027-4.45336c-.08722.36389-.15222.70379-.23938,1.06768l-8.04278,2.04346s-4.93445-4.57678-11.55335-4.6814a26.30134,26.30134,0,0,0-12.37481,3.33747s-1.2331-3.18671-7.33875-2.68134-12.99762,8.7276-12.99762,8.7276-6.21918-4.11108-11.99695,2.66669S90.98309,128.5363,97.872,134.0919s7.59571,7.22217,7.59571,7.22217-.62274-5.83752,1.23327-8.88922,2.24225-3.24487,2.88611-3.76a15.14755,15.14755,0,0,1,1.86707-1.15887l5.08453-.07855a5.28705,5.28705,0,0,1,.96423.20886.46506.46506,0,0,1,.47693-.46344.49754.49754,0,0,1,.39832.77984,11.40386,11.40386,0,0,1,4.01153,2.97284,18.08511,18.08511,0,0,0,1.99677,1.87989.45065.45065,0,0,1,.13556-.2569c.99426-.94739,2.22424-1.61408,3.20367-2.57025.58118-.56739,1.03-1.23114,1.61695-1.76746.06958-.093.14782-.17865.21551-.27313a.49431.49431,0,0,1,.43109-.21063c.013-.00775.02246-.01862.03559-.02625a.50038.50038,0,0,1,.50476.86347,3.35581,3.35581,0,0,0-.50818.38659c-1.32483,1.71863-2.90143,3.21991-4.25678,4.91535a44.5535,44.5535,0,0,0,5.21845,3.22564,30.1046,30.1046,0,0,1,19.15668,5.4444c9.06555,6.5556,10.62115,12,10.51,14.66669,0,0,4.11114-1,6.88891,0a6.23736,6.23736,0,0,1,3.67035,4.81006l.005-.05719a9.31559,9.31559,0,0,0,.9046-.41126.46231.46231,0,0,1,.13476-.1817,26.72157,26.72157,0,0,1,3.81732-2.66357,20.99163,20.99163,0,0,0,6.09083-11.91169c2.11041-12.00268.79138-15.95965.39569-23.74157S185.19525,110.77959,185.19525,110.77959Z" transform="translate(-19.83217 -2.08821)"/><path class="cls-6" d="M107.60278,180.04808c-9.12921,5.90888-14.35114-3.51178-14.35114-3.51178,8.60187,9.11115,14.50928-.22223,14.09626-3.33331s-9.03144-18-19.4759-16.66669-9.16357,18.75409,7.22223,31.44446,23.44446,4,23.44446,4C113.10949,189.31743,108.31921,181.28813,107.60278,180.04808Z" transform="translate(-19.83217 -2.08821)"/><path class="cls-7" d="M156.8974,166.7202s3.06064-4.18737,6.59951-3.90044a5.95987,5.95987,0,0,1,5.45043,7.40049c-1.05076,3.79-3.85826,4.4595-3.85826,4.4595s-1.24032,6.31257-6.6289,9.27757-13.80535,0-13.80535,0,1.02883-4.35742-.68878-5.7387c0,0,5.44481-.89279,6.74913-2.55059a7.41319,7.41319,0,0,1,1.90553-5.59272A10.69628,10.69628,0,0,1,156.8974,166.7202Z" transform="translate(-19.83217 -2.08821)"/><path class="cls-3" d="M122.76089,199.27708c1.11111,1.7037,5.07408,7,14.2963,9.07407a39.844,39.844,0,0,0,17.2779-.10051,5.669,5.669,0,0,0,5.78271,2.89135c.39756,3.03592,2.92749,3.86719,4.04789,3.32506s-.28914-3.28891-.10843-4.59.65056-1.1204,1.8071-.6867,3.68647,1.62639,4.337.759a2.14946,2.14946,0,0,0-.506-3.07206c-1.15654-.97583-2.09623-1.9878-1.98781-2.78292s1.771-.93969,2.27694-.65056,1.98781.36142,2.31308-.68669.04375-2.34923-2.49379-2.96364a7.42845,7.42845,0,0,1-2.96363-1.62638,17.332,17.332,0,0,0-2.739-1.48895c1.2738-2.00854.25651-5.16483-.60429-5.26047s-1.24339,1.53032-1.48992,2.29548-.99686.57387-3.0821,1.72161-2.359,3.92145-2.359,3.92145-9.233.19129-14.13307-2.77371-8.10769-5.93-13.17688-6.7908a6.55292,6.55292,0,0,0-7.055,3.73016,25.30587,25.30587,0,0,0-.82031,8.94967,4.42381,4.42381,0,0,0,2.98949-1.01194" transform="translate(-19.83217 -2.08821)"/><path d="M109.2718,194.884c.922,1.01021,1.94438,1.90411,2.94129,2.801a28.97169,28.97169,0,0,0,3.16149,2.44488,15.53186,15.53186,0,0,0,3.48692,1.82492,10.452,10.452,0,0,0,3.92309.60222,7.41106,7.41106,0,0,1-4.14455.146,11.80786,11.80786,0,0,1-3.82095-1.74238,17.357,17.357,0,0,1-3.1485-2.71893A14.57851,14.57851,0,0,1,109.2718,194.884Z" transform="translate(-19.83217 -2.08821)"/><path d="M167.15869,173.43256a9.98731,9.98731,0,0,1,.47291,1.7431,9.05937,9.05937,0,0,1,.12873,1.82577,5.21012,5.21012,0,0,1-.35431,1.85776,3.66663,3.66663,0,0,1-1.19931,1.58765l.18025-.45294a5.51185,5.51185,0,0,1-.08739,2.2593,6.0252,6.0252,0,0,1-.91507,2.01635,7.19213,7.19213,0,0,1-1.50651,1.5612c-.26793.23994-.58937.40494-.87406.61888l-.92654.5284.07075-.06911a13.71677,13.71677,0,0,1-2.01837,2.58928,15.28905,15.28905,0,0,1-2.53038,2.10164,19.90671,19.90671,0,0,1-2.90053,1.56305,20.87608,20.87608,0,0,1-3.1063,1.08365l.04263-.01348c-1.43073.50612-2.88181.95627-4.32747,1.42128-1.45432.44124-2.91188.87349-4.39339,1.24l-.03416-.094c1.37095-.6705,2.76585-1.27522,4.164-1.87094,1.40678-.572,2.80818-1.15877,4.22992-1.68962l.00542-.002.03759-.01158,1.50859-.4647c.48874-.19143.998-.33258,1.48194-.536a22.5464,22.5464,0,0,0,2.841-1.356,20.52726,20.52726,0,0,0,2.61121-1.7717,9.348,9.348,0,0,0,2.10586-2.33606l.02884-.04834.04219-.021a6.92573,6.92573,0,0,0,1.70284-1.14137,5.80466,5.80466,0,0,0,1.2254-1.59676,5.924,5.924,0,0,0,.6086-1.87,6.50347,6.50347,0,0,0,.04344-1.9115l-.04167-.29674.222-.15653a3.06985,3.06985,0,0,0,.9573-1.1829,5.67618,5.67618,0,0,0,.44323-1.59151,14.12427,14.12427,0,0,0-.03579-3.48627Z" transform="translate(-19.83217 -2.08821)"/><path class="cls-7" d="M166.96235,172.99472a7.57422,7.57422,0,0,1,.65863,3.62761,4.71033,4.71033,0,0,1-1.69492,3.329,6.14871,6.14871,0,0,1-.7189,3.87242,6.73289,6.73289,0,0,1-3.10558,2.7167,13.71368,13.71368,0,0,1-5.98293,5.40863c-11.27312,5.11379-16.35164-1.19025-16.42383-1.13267a29.85013,29.85013,0,0,0,5.94054-8.82541c5.32234-2.92466,11.09668-5.6855,16.64192-8.16164A10.58393,10.58393,0,0,1,166.96235,172.99472Z" transform="translate(-19.83217 -2.08821)"/><path class="cls-5" d="M198.94362,203.18221c5.41663,10.35951-5.3485,17.48935-5.3485,17.48935s7.02935,1.724,6.10931,7.37567c-.52574,8.54326-8.2804,12.48631-8.2804,12.48631,3.023,3.15443-1.05148,14.7207-13.53779,16.16648s-20.518-4.33735-20.518-4.33735a34.54966,34.54966,0,0,1-25.61995-5.62748s15.14507-5.866,27.17739-15.08811,14.30386-12.261,20.80113-17.53139a55.45986,55.45986,0,0,1,11.52327-7.444l3.58253-1.8346,2.33315-1.01205Z" transform="translate(-19.83217 -2.08821)"/><path class="cls-5" d="M149.872,285.74712s-1.29572-2.6287-2.15653-12.48631a90.80447,90.80447,0,0,1,1.00887-20.451l-14.154-7.07924a94.03821,94.03821,0,0,1-23.7246,5.59746c-12.09049.97412-17.28119-1.31133-17.28119-1.31133l-7.34388,3.07265.71081,22.03468s10.838,6.75021,31.86708,9.87171S149.872,285.74712,149.872,285.74712Z" transform="translate(-19.83217 -2.08821)"/><path class="cls-5" d="M80.15146,183.15468a12.429,12.429,0,0,0,.84354,3.82165,3.73988,3.73988,0,0,0,5.57107,1.96783,12.41218,12.41218,0,0,0,2.25357-1.70463,6.43748,6.43748,0,0,0,3.89464,4.15689,6.121,6.121,0,0,0,5.49773-.73589,127.05285,127.05285,0,0,1-10.73462-10.14464c-3.81217-4.32386-6.062-11.31672-6.062-11.31672s-1.94584,1.277-2.00664,1.6418.54688,6.6505.54688,6.6505l.03211,2.64928Z" transform="translate(-19.83217 -2.08821)"/></g><g id="Layer_4" data-name="Layer 4"><path class="cls-8" d="M236.42148,106.17168c20.47105-22.36768,9.21109-45.35522,12.028-63.313s17.95775-27.8169,17.95775-27.8169c-38.38029-8.92459-80.6731,26.69274-80.6731,26.69274A24.62361,24.62361,0,0,0,175.21,23.9664s5.98592,17.13175,2.46479,17.13175-10.21127-7.39437-19.3662-15.493-21.12676-8.80281-21.12676-8.80281c12.26887,5.4742,26.40845,20.42253,25.35212,21.831s-4.92958-.35211-9.15493-2.46479-8.66149-4-11.99806-4.61635c-7.09876-8.43939-26.03011-14.74984-26.03011-14.74984s7.04225,9.85915,3.87324,19.71831-2.11268,16.60563-2.11268,16.60563l-3.009,2.839S110.67306,54.19551,106.848,58.68,94.84535,99.964,94.84535,99.964s-17.0148.92329-15.16823,17.67429c1.18708,12.39837,10.55181,16.6191,16.09151,22.81829l6.463,9.57334s-2.29709-1.26686-5.49669,1.09678c-2.974-.36812-8.48445-2.22867-14.68364,3.04723S80.20471,169.474,80.20471,169.474a15.10666,15.10666,0,0,0-1.48485,7.51816s-23.5757,19.12516-33.468,33.6339-6.72678,29.01747-1.319,35.87615c5.35539,6.79221,22.68639,11.3432,42.73483,7.38627,0,0-.65948,13.18976.2638,21.23552,0,0,8.83714,9.10093,48.01074,11.0794s65.55312-10.55181,65.55312-10.55181a171.88823,171.88823,0,0,1,.39569-30.73215c1.71467-17.93808,10.15612-34.68908,10.15612-34.68908s14.77253-19.52085,21.49931-36.93133-.52759-35.74426-11.48941-41.02017c0,0,5.29022-2.63795,13.73167-.26379,0,0-3.03364-5.6716-8.44145-5.4078,0,0,11.4751-3.42934,17.93808,3.16554,0,0-1.71467-8.04576-13.32166-20.18034A127.17358,127.17358,0,0,1,243.494,116.715C242.89645,114.768,239.66894,108.933,236.42148,106.17168Z" transform="translate(-19.83217 -2.08821)"/><path d="M203.7928,218.54a34.34864,34.34864,0,0,1,5.01806-8.56191,34.73217,34.73217,0,0,1,3.34174-3.69629,25.74411,25.74411,0,0,1,3.89181-3.09954c-1.13081,1.21695-2.26043,2.39857-3.32795,3.639-1.069,1.23592-2.12468,2.47972-3.11971,3.77423-1.01546,1.27779-1.99031,2.589-2.95494,3.9128C205.68927,215.84058,204.73022,217.17329,203.7928,218.54Z" transform="translate(-19.83217 -2.08821)"/><path d="M129.76907,32.08508c-2.12939-2.38489-4.12976-4.819-6.2912-7.10238a50.42143,50.42143,0,0,0-6.99081-6.33212,22.64352,22.64352,0,0,1,7.71959,5.64823A36.13,36.13,0,0,1,129.76907,32.08508Z" transform="translate(-19.83217 -2.08821)"/><path d="M113.27294,59.0433a26.36365,26.36365,0,0,1,2.22995-2.78892,34.33073,34.33073,0,0,1,2.49982-2.548,44.17081,44.17081,0,0,1,5.69831-4.29019c1.95906-1.33482,3.87431-2.74815,5.96633-3.92472a25.24025,25.24025,0,0,1,6.75895-2.50166l-.38.75242c-.66219-1.37655-1.34087-2.77486-2.04627-4.1491l-2.08781-4.16371.08467-.05321c.96356,1.22875,1.84257,2.51816,2.68,3.83421.81845,1.32971,1.61772,2.66253,2.32676,4.07085l.30489.6056-.685.147a34.13978,34.13978,0,0,0-6.60111,2.17422A32.37111,32.37111,0,0,0,123.8898,49.678c-1.88274,1.431-3.50952,3.15472-5.29011,4.68363l-5.2506,4.74652Z" transform="translate(-19.83217 -2.08821)"/><path d="M157.49671,41.26954a11.77436,11.77436,0,0,0-5.41516-3.58145,7.03715,7.03715,0,0,0-3.16485-.18307c-.2611.04109-.51244.13695-.76837.20141a3.09484,3.09484,0,0,0-.74366.27609c-.23819.1132-.49017.21526-.71629.33536a2.60907,2.60907,0,0,0-.55162.45866,5.40127,5.40127,0,0,0-1.1205,2.81428,14.07756,14.07756,0,0,0-.06927,3.22052,28.18845,28.18845,0,0,0,1.34033,6.39084,33.14816,33.14816,0,0,0,6.19876,11.47549,19.58443,19.58443,0,0,0,4.92767,4.27906,15.2316,15.2316,0,0,0,6.18024,2.176,14.59128,14.59128,0,0,1-6.42329-1.75026,20.05511,20.05511,0,0,1-5.26093-4.1953,32.56774,32.56774,0,0,1-6.57423-11.682,29.121,29.121,0,0,1-1.29468-6.62989,14.9427,14.9427,0,0,1,.12276-3.41869,5.77592,5.77592,0,0,1,1.4266-3.21631,7.04969,7.04969,0,0,1,6.63559-1.01768A11.48171,11.48171,0,0,1,157.49671,41.26954Z" transform="translate(-19.83217 -2.08821)"/><path d="M159.60708,49.44719a32.51978,32.51978,0,0,0,2.31777,6.01511,17.66719,17.66719,0,0,0,1.694,2.67535,21.245,21.245,0,0,0,2.18742,2.389,8.53184,8.53184,0,0,1-2.77222-1.87226,11.00694,11.00694,0,0,1-1.99452-2.72832,13.44684,13.44684,0,0,1-1.1566-3.15721A10.79508,10.79508,0,0,1,159.60708,49.44719Z" transform="translate(-19.83217 -2.08821)"/><path d="M180.8426,47.72612a41.1076,41.1076,0,0,1,5.63631-5.93663,33.09538,33.09538,0,0,1,6.71528-4.69023c-2.00244,1.87586-4.02308,3.65183-6.05755,5.44269C185.091,44.31651,183.04747,46.09073,180.8426,47.72612Z" transform="translate(-19.83217 -2.08821)"/><path d="M121.54732,51.2538a31.64239,31.64239,0,0,1,10.5778-6.51176,27.0315,27.0315,0,0,1,6.08265-1.51533,20.99764,20.99764,0,0,1,6.23264.13955,35.37164,35.37164,0,0,0-6.10928.631,37.19967,37.19967,0,0,0-5.8575,1.68146,51.92973,51.92973,0,0,0-5.58934,2.48317C125.073,49.11254,123.27973,50.11824,121.54732,51.2538Z" transform="translate(-19.83217 -2.08821)"/><path d="M146.54922,37.9721c-2.56352-.44744-5.12451-.89611-7.6935-1.29519-2.568-.40188-5.13231-.82061-7.7071-1.16076a140.13123,140.13123,0,0,0-15.47126-1.41635l-3.64156-.06086,3.524-.8832a52.64772,52.64772,0,0,1,9.61925-1.39408,62.22051,62.22051,0,0,1,9.69247.15037c1.61314.123,3.20617.4175,4.80334.65264,1.57657.356,3.1747.60964,4.719,1.09012a50.62553,50.62553,0,0,1,9.014,3.44447,58.37021,58.37021,0,0,0-9.14317-2.93768c-1.5415-.42747-3.134-.628-4.69987-.93087-1.58758-.18216-3.16614-.42368-4.76249-.49443a63.53606,63.53606,0,0,0-9.56169-.03777,62.07378,62.07378,0,0,0-9.42993,1.38465l-.11755-.944c2.6221.069,5.2258.29455,7.81987.57626,2.5955.273,5.17244.6716,7.742,1.10062,2.569.43224,5.13079.89927,7.68,1.42783C141.48158,36.785,144.02709,37.32834,146.54922,37.9721Z" transform="translate(-19.83217 -2.08821)"/><path d="M102.52318,84.69774a28.57486,28.57486,0,0,0,9.9173-26.0053,16.87059,16.87059,0,0,1-4.50941,6.60587c.57037.17961,1.23768.49031,1.80806.66992a7.51735,7.51735,0,0,1-2.73988,3.77335,4.54843,4.54843,0,0,0,2.22351-.24614,9.42669,9.42669,0,0,1-4.982,6.29046l2.34345.04082a11.48727,11.48727,0,0,1-3.81038,4.129l1.66989-.14915A22.54556,22.54556,0,0,1,102.52318,84.69774Z" transform="translate(-19.83217 -2.08821)"/><path d="M144.95208,41.277a15.666,15.666,0,0,0,6.33869,6.46788c-.6947-.09784-1.65452.11208-2.34922.01425a33.28813,33.28813,0,0,0,4.36836,4.41742,14.20644,14.20644,0,0,1-2.13452.92317,18.88273,18.88273,0,0,0,4.48411,3.718,13.32151,13.32151,0,0,0-3.77352-.80789,5.12691,5.12691,0,0,0,2.38837,2.70275l-1.188.21026a11.95471,11.95471,0,0,0,5.39973,2.58364c-.54362.19-1.31025.64652-1.85387.83655a27.50479,27.50479,0,0,0,6.61557,4.08558l-1.43213.54986c1.42632.86947,2.85265,3.0985,4.279,3.968-6.68435-.9-12.74146-5.52437-16.72091-10.97A24.25953,24.25953,0,0,1,144.95208,41.277Z" transform="translate(-19.83217 -2.08821)"/><path d="M197.15275,63.14308A75.24913,75.24913,0,0,1,207.875,45.96978a94.50262,94.50262,0,0,1,6.994-7.35026,96.07433,96.07433,0,0,1,7.69187-6.60813,53.25992,53.25992,0,0,1,8.68712-5.2835c.75325-.39437,1.52557-.74639,2.30937-1.0732.78143-.33125,1.55235-.69095,2.34335-.99887,1.58611-.60628,3.18562-1.17827,4.8127-1.66117A70.24312,70.24312,0,0,1,260.713,19.79314l.00278.1a99.65137,99.65137,0,0,0-19.69515,4.086,71.438,71.438,0,0,0-18.142,8.47811c-1.34543,1.00011-2.77192,1.90518-4.02556,3.02972-.63935.54563-1.30191,1.06563-1.92286,1.63274-.61814.5705-1.21269,1.16645-1.81986,1.748a73.93319,73.93319,0,0,0-6.59065,7.6224A136.509,136.509,0,0,0,197.24307,63.186Z" transform="translate(-19.83217 -2.08821)"/><path d="M204.44409,51.26572a51.803,51.803,0,0,0-.92864,11.93589,25.372,25.372,0,0,0,.99713,5.83112,10.43007,10.43007,0,0,0,2.97924,4.88806,5.07844,5.07844,0,0,0,5.18876,1.03889,10.49586,10.49586,0,0,0,4.49625-3.5124,21.26462,21.26462,0,0,0,4.22354-10.93713l.3967-.00516a38.29223,38.29223,0,0,1-.43025,8.9791,30.24962,30.24962,0,0,1-1.028,4.3825,27.57939,27.57939,0,0,1-1.70488,4.17911l-.33261-.29445a22.897,22.897,0,0,1,3.7826-2.13154,15.55523,15.55523,0,0,1,4.18622-1.25939,8.94873,8.94873,0,0,1,2.2294-.03364c.76436.0721,1.43053.24689,2.14922.38021.70561.15007,1.41006.31063,2.11239.50031q.527.14,1.0526.31377a5.65308,5.65308,0,0,1,1.10372.468l.9541.55347-1.12825.25218a34.78529,34.78529,0,0,0-5.51461,1.77076,28.736,28.736,0,0,0-5.11692,2.68417,20.49088,20.49088,0,0,0-4.26967,3.78029,13.70047,13.70047,0,0,0-2.494,5.02172l-.831-.49743a17.80356,17.80356,0,0,1,3.10436-2.0143,15.71622,15.71622,0,0,1,3.46089-1.29328,11.62524,11.62524,0,0,1,3.712-.25745,10.14919,10.14919,0,0,1,3.56341,1.09492l.85028.41506-.91063.3101a35.22529,35.22529,0,0,0-4.06977,1.67649,18.31815,18.31815,0,0,0-3.7116,2.324,9.57159,9.57159,0,0,0-2.564,3.48391,10.72026,10.72026,0,0,0-.98933,4.27137l-.09978.00653a10.91835,10.91835,0,0,1,.79391-4.40305,9.54693,9.54693,0,0,1,2.52083-3.74524,18.883,18.883,0,0,1,3.74613-2.53,30.8631,30.8631,0,0,1,4.12333-1.835l-.06033.725a9.31909,9.31909,0,0,0-3.27422-.93144,10.72247,10.72247,0,0,0-3.40654.30941,15.92734,15.92734,0,0,0-3.22334,1.26994,16.91,16.91,0,0,0-2.89827,1.894l-1.20726.99783.37618-1.49533a14.7253,14.7253,0,0,1,2.67332-5.45317,19.921,19.921,0,0,1,4.51486-3.99008,29.72605,29.72605,0,0,1,5.32393-2.71562,35.43369,35.43369,0,0,1,5.70479-1.75486l-.1741.8055a5.91727,5.91727,0,0,0-.86832-.371c-.32657-.11492-.65987-.22247-.99827-.31974-.67565-.19741-1.3638-.3693-2.055-.53111a11.53729,11.53729,0,0,0-4.12023-.43353A14.92668,14.92668,0,0,0,222.31,76.14893a21.956,21.956,0,0,0-3.74433,1.97387l-.74345.488.41078-.78248a23.90042,23.90042,0,0,0,1.76325-4.07182,29.91271,29.91271,0,0,0,1.05945-4.3242,33.13707,33.13707,0,0,0,.45254-4.4356,34.34379,34.34379,0,0,0-.10739-4.44827l.39665-.00516a21.79967,21.79967,0,0,1-3.99116,11.38935,11.0244,11.0244,0,0,1-4.83649,3.85408,5.95492,5.95492,0,0,1-3.20056.25744,6.17715,6.17715,0,0,1-2.83621-1.479,11.22881,11.22881,0,0,1-3.16138-5.30116,23.496,23.496,0,0,1-.88513-6.03658A45.061,45.061,0,0,1,204.347,51.24187Z" transform="translate(-19.83217 -2.08821)"/><path d="M221.46707,51.2538a30.38274,30.38274,0,0,1,.726,5.56487c.11583,1.86753.12306,3.73945.07475,5.61124a47.16745,47.16745,0,0,1-.49534,5.601,19.82816,19.82816,0,0,1-1.48423,5.42422,37.71586,37.71586,0,0,0,.7089-5.51262c.12407-1.8449.22767-3.69244.2718-5.54543l.1469-5.56356.05437-2.78837C221.48884,53.11518,221.53405,52.18148,221.46707,51.2538Z" transform="translate(-19.83217 -2.08821)"/><path d="M220.20977,83.80692c-.94526,1.75907-1.97128,3.39391-2.84692,5.10329a16.85987,16.85987,0,0,0-1.96307,5.38218,6.16349,6.16349,0,0,1,.00978-3.015A11.57382,11.57382,0,0,1,216.477,88.4475a15.72079,15.72079,0,0,1,1.64-2.50812A12.659,12.659,0,0,1,220.20977,83.80692Z" transform="translate(-19.83217 -2.08821)"/><path d="M221.05706,76.409c-1.28341,1.20292-2.53755,2.31144-3.70382,3.51776-.59928.58618-1.14,1.22047-1.69034,1.85507-.551.63944-1.03348,1.3243-1.58209,2.02506a7.56324,7.56324,0,0,1,.94249-2.47209,10.81342,10.81342,0,0,1,1.6154-2.10677A12.59586,12.59586,0,0,1,218.682,77.5517,9.03962,9.03962,0,0,1,221.05706,76.409Z" transform="translate(-19.83217 -2.08821)"/><path d="M212.76182,96.93034a23.43223,23.43223,0,0,0,3.55168,2.137,23.14585,23.14585,0,0,0,3.78665,1.58663c1.28275.41359,2.64569.60846,4.02076.93806,1.3632.31911,2.715.7017,4.046,1.153a29.57823,29.57823,0,0,1,7.541,3.7547,22.13486,22.13486,0,0,1,3.17092,2.78786,17.1749,17.1749,0,0,1,2.428,3.41494,20.5694,20.5694,0,0,0-2.77461-3.06823,22.00915,22.00915,0,0,0-3.25353-2.49621,35.92582,35.92582,0,0,0-7.43509-3.44738c-1.29331-.45888-2.61625-.83673-3.94956-1.18215-.66538-.17838-1.3357-.34173-2.00922-.50131a14.5534,14.5534,0,0,1-2.036-.63A21.52891,21.52891,0,0,1,212.76182,96.93034Z" transform="translate(-19.83217 -2.08821)"/><path d="M169.1166,82.9975c-5.15632,1.81636-10.06248,4.8217-13.18052,9.26208a15.906,15.906,0,0,0-2.77,7.44779,12.562,12.562,0,0,0,2.335,7.49907,15.35869,15.35869,0,0,0,6.10865,5.20226,24.69543,24.69543,0,0,0,7.92143,2.02039,25.67126,25.67126,0,0,0,8.16916-.44471,17.12062,17.12062,0,0,0,7.24356-3.46723l1.67518-1.46967-1.12281,1.9358a18.82559,18.82559,0,0,0-2.16556,6.44588,27.5813,27.5813,0,0,0-.20241,6.87423c.15674,2.31821.45509,4.63182.59264,6.98219a52.63969,52.63969,0,0,1,.00593,7.06736,63.44744,63.44744,0,0,1-.86255,6.998,27.28747,27.28747,0,0,1-1.89984,6.82579,20.6215,20.6215,0,0,1-3.92232,5.89026,16.86933,16.86933,0,0,1-5.81115,3.936l-.03372-.09415a18.56771,18.56771,0,0,0,9.075-10.02542,26.43765,26.43765,0,0,0,1.68523-6.67795c.33206-2.3006.60741-4.60623.753-6.91592.35369-4.62656-.28454-9.22667-.57139-13.92109-.34414-4.68632.24379-9.63036,2.755-13.79236l.55232.46611a17.83991,17.83991,0,0,1-7.65061,3.38133,28.15731,28.15731,0,0,1-8.29533.31255,26.92252,26.92252,0,0,1-8.07286-1.93149,15.895,15.895,0,0,1-6.5389-5.171,14.6923,14.6923,0,0,1-1.96482-3.75112,10.35873,10.35873,0,0,1-.65178-4.23014,16.54027,16.54027,0,0,1,3.02176-7.84534,21.47775,21.47775,0,0,1,6.17472-5.6237,27.06746,27.06746,0,0,1,3.69867-1.91978,25.72759,25.72759,0,0,1,3.9235-1.36264Z" transform="translate(-19.83217 -2.08821)"/><path d="M226.9981,138.64439a32.66,32.66,0,0,0-3.80609-2.88084c-.65292-.45219-1.34912-.83464-2.03093-1.23579-.70376-.36112-1.40123-.73543-2.11937-1.05935a22.31252,22.31252,0,0,0-9.09546-2.10136A17.98639,17.98639,0,0,0,200.898,133.716a34.766,34.766,0,0,0-7.64861,5.68144,92.4703,92.4703,0,0,0-11.89794,14.90587c-1.77581,2.65291-3.47625,5.36026-5.39138,7.96376a36.30836,36.30836,0,0,1-3.13795,3.68614,13.68576,13.68576,0,0,1-3.8571,2.90813l-.03533-.09355a14.41009,14.41009,0,0,0,3.52152-3.15856,41.91675,41.91675,0,0,0,2.8725-3.79655c1.77781-2.629,3.37338-5.41876,5.16888-8.0802a86.763,86.763,0,0,1,5.69093-7.787,55.42434,55.42434,0,0,1,6.69631-6.952,50.10784,50.10784,0,0,1,7.85119-5.58079,17.1157,17.1157,0,0,1,2.14946-1.10143l1.11127-.49231.55736-.24642c.19182-.06479.38911-.11388.58374-.1716a17.74388,17.74388,0,0,1,4.8025-.86229,20.293,20.293,0,0,1,9.43633,2.23713,26.54969,26.54969,0,0,1,7.699,5.79981Z" transform="translate(-19.83217 -2.08821)"/><path d="M138.07365,92.96783a10.5269,10.5269,0,0,1,7.38327-9.83274,19.72712,19.72712,0,0,0-7.38327,9.83274Z" transform="translate(-19.83217 -2.08821)"/><path d="M147.06427,79.66476a14.5174,14.5174,0,0,1,6.15094,9.98919c-.963-1.76595-1.84491-3.47524-2.87256-5.11954C149.33891,82.8754,148.20913,81.31806,147.06427,79.66476Z" transform="translate(-19.83217 -2.08821)"/><path d="M107.18347,87.86356a37.81754,37.81754,0,0,0-3.79392,4.03836,38.4306,38.4306,0,0,0-3.07612,4.60865,11.18728,11.18728,0,0,1,6.87-8.647Z" transform="translate(-19.83217 -2.08821)"/><path d="M108.58505,89.65105a5.88729,5.88729,0,0,1,2.71977,7.14426,20.30715,20.30715,0,0,0-.97664-3.718A19.95459,19.95459,0,0,0,108.58505,89.65105Z" transform="translate(-19.83217 -2.08821)"/><path d="M152.92871,95.50436q-1.45483-1.50868-3.03092-2.8938a7.77546,7.77546,0,0,0-2.97016-1.85117,6.11053,6.11053,0,0,0-4.602.90747,10.89067,10.89067,0,0,0-4.745,5.90654,2.89055,2.89055,0,0,1,1.70373.24295,7.57781,7.57781,0,0,1,5.92623-4.61044C147.803,92.8153,151.3242,93.431,152.92871,95.50436Z" transform="translate(-19.83217 -2.08821)"/><path d="M99.22787,100.10715s4.03191-4.79989,7.03984-5.24788,3.70209.576,3.70209.576l-1.07815.32a3.93007,3.93007,0,0,1,2.81594,2.0611l-1.152.56284s-2.04795-2.07978-4.54389-1.58388-5.69829,3.63183-5.69829,3.63183Z" transform="translate(-19.83217 -2.08821)"/><path d="M117.85144,116.10678s-11.96772-2.49594-12.38371-7.87182,11.10986-8.75723,17.82359-7.80782c6.33585.896,7.10383,5.74777,4.86389,8.25581s-6.01587,2.432-9.0238,4.79989A3.1393,3.1393,0,0,0,117.85144,116.10678Z" transform="translate(-19.83217 -2.08821)"/><path class="cls-9" d="M120.13444,103.58664a3.74655,3.74655,0,0,1,1.37949.27049,1.45019,1.45019,0,0,1,.865,1.04519,1.48759,1.48759,0,0,1-.82439,1.41546,4.36658,4.36658,0,0,1-1.67833.41691l-8.19917.9063c-.7582.08381-2.96362-.00582-2.33892-1.36586.38958-.84815,2.38893-1.33866,3.20423-1.62028A19.94023,19.94023,0,0,1,120.13444,103.58664Z" transform="translate(-19.83217 -2.08821)"/><path d="M105.42169,141.33363a30.01036,30.01036,0,0,0-4.75627-4.57573c-1.67516-1.438-3.51536-2.69189-5.145-4.25747a35.27374,35.27374,0,0,1-7.80824-10.87786,17.5773,17.5773,0,0,1-1.61422-6.55736,9.97753,9.97753,0,0,1,.46316-3.37488,8.40075,8.40075,0,0,1,1.70654-2.93191,11.24106,11.24106,0,0,1,5.59068-3.60535,9.11374,9.11374,0,0,1,6.58295.96737l-.30571.0445a41.71494,41.71494,0,0,1,4.26409-4.36825,24.54506,24.54506,0,0,1,5.05142-3.49968,11.30594,11.30594,0,0,1,6.10029-1.20838,8.67354,8.67354,0,0,1,3.10676.72957,4.94929,4.94929,0,0,1,2.48342,2.25912l-.76242-.26223a27.34435,27.34435,0,0,1,6.05241-2.47267,22.665,22.665,0,0,1,6.47377-.89486,17.06719,17.06719,0,0,1,6.3828,1.45082,19.89432,19.89432,0,0,1,5.481,3.50711l-.26036-.06634c2.6924-.63589,5.39884-1.21653,8.09964-1.81932l.02463.09692c-2.661.75952-5.31634,1.54119-7.98575,2.26762l-.136.037-.12473-.10343a20.60715,20.60715,0,0,0-5.40672-3.17885,16.1806,16.1806,0,0,0-6.08359-1.2219,23.06525,23.06525,0,0,0-6.18514.916,27.29073,27.29073,0,0,0-5.79055,2.38723l-.51447.2875-.24821-.5498a3.22384,3.22384,0,0,0-.7787-.98109,4.93153,4.93153,0,0,0-1.14773-.74267,7.69921,7.69921,0,0,0-2.75263-.682,10.59557,10.59557,0,0,0-5.65479,1.02149,25.39634,25.39634,0,0,0-4.9811,3.2469,39.14859,39.14859,0,0,0-4.35156,4.14235l-.13454.1499-.17146-.10536a8.39865,8.39865,0,0,0-6.2526-1.03835,10.28226,10.28226,0,0,0-5.38044,3.53635,8.0901,8.0901,0,0,0-1.8337,6.032,18.38828,18.38828,0,0,0,1.76428,6.2399A38.2698,38.2698,0,0,0,96.049,131.95793c3.11077,3.04961,6.93991,5.60446,9.46478,9.33666Z" transform="translate(-19.83217 -2.08821)"/><path d="M90.76089,118.31411a6.71019,6.71019,0,0,1,.45738-2.6238,6.40507,6.40507,0,0,1,1.47286-2.31835,4.38684,4.38684,0,0,1,2.54857-1.1859,4.46711,4.46711,0,0,1,2.6323.5725,8.12734,8.12734,0,0,0-2.49252.19522,4.75034,4.75034,0,0,0-1.99859,1.1414,9.04367,9.04367,0,0,0-1.45984,1.92739C91.50338,116.74324,91.12728,117.50746,90.76089,118.31411Z" transform="translate(-19.83217 -2.08821)"/><path d="M159.07173,111.22324a18.41275,18.41275,0,0,1-2.44358,3.8255,17.41234,17.41234,0,0,1-3.36116,3.116,12.15256,12.15256,0,0,1-4.27472,1.78882,10.94812,10.94812,0,0,1-4.65387-.11036l.49563-.24791a17.04522,17.04522,0,0,1-4.71669,5.74278,17.36588,17.36588,0,0,1-10.21842,3.82979,13.55511,13.55511,0,0,1-1.847.05255l-1.84611-.13933a11.29448,11.29448,0,0,1-1.82655-.28738l-1.81971-.36373c-1.17724-.365-2.34469-.76964-3.52052-1.155l.27925.018a23.43384,23.43384,0,0,1-6.16764.68483,15.95,15.95,0,0,1-6.1106-1.26828,11.19416,11.19416,0,0,1-4.86021-3.9649,14.52766,14.52766,0,0,1-2.21193-5.81061l.38238.28523a10.21532,10.21532,0,0,1-2.15087-.1269,9.12283,9.12283,0,0,1-2.05909-.58142,6.28451,6.28451,0,0,1-1.77276-1.19158,5.40346,5.40346,0,0,1-1.16166-1.75808l.09153-.04027a5.211,5.211,0,0,0,1.25769,1.59191,5.98623,5.98623,0,0,0,1.754.97418,8.60967,8.60967,0,0,0,1.96663.43072,9.64737,9.64737,0,0,0,2.00074.00235l.31179-.03537.07082.32078a14.1668,14.1668,0,0,0,2.28957,5.39424,10.849,10.849,0,0,0,4.50426,3.56049,16.78522,16.78522,0,0,0,5.73136,1.20807,23.26187,23.26187,0,0,0,5.908-.52191l.14418-.03183.13546.04986,3.39207,1.24857,1.74906.4479a10.90544,10.90544,0,0,0,1.76613.37711,18.21694,18.21694,0,0,0,7.18835-.2057,15.0856,15.0856,0,0,0,6.30461-3.40345,18.57055,18.57055,0,0,0,4.27-5.67769l.14831-.30021.34758.05215,1.07287.161.53546.082.53967.00663c.3595.00267.72046.02087,1.08008.01317l1.07123-.14345a11.4449,11.4449,0,0,0,4.02613-1.58122,16.79977,16.79977,0,0,0,3.391-2.8216,21.807,21.807,0,0,0,2.72788-3.54127Z" transform="translate(-19.83217 -2.08821)"/><path d="M100.31343,115.39739a4.08026,4.08026,0,0,1,.83306,1.92956,4.03508,4.03508,0,0,1-.15234,2.09619,4.0352,4.0352,0,0,1-.83307-1.92956A4.0804,4.0804,0,0,1,100.31343,115.39739Z" transform="translate(-19.83217 -2.08821)"/><path d="M91.872,151.31412c1.3314.14847,2.6532.3723,3.97083.62387a38.42273,38.42273,0,0,1,3.92032.94144,28.71652,28.71652,0,0,1,3.78238,1.41632,10.75922,10.75922,0,0,0,1.83062.5637,3.22348,3.22348,0,0,0,.88186.06774,1.447,1.447,0,0,0,.371-.073c.08905-.01956.21005-.14194.16369-.07979l-.041.11212.77139-3.67262.01971.2669a42.11277,42.11277,0,0,1-1.87939-6.61737,29.98229,29.98229,0,0,1-.66331-6.86772,13.74521,13.74521,0,0,1,1.95929-6.6234,10.52786,10.52786,0,0,1,2.267-2.61131,5.06661,5.06661,0,0,1,3.10866-1.333,3.46478,3.46478,0,0,0-1.57763.5492,7.21618,7.21618,0,0,0-1.33277,1.00987,11.23124,11.23124,0,0,0-2.00136,2.65683,13.19949,13.19949,0,0,0-1.57571,6.37772,29.11417,29.11417,0,0,0,.74916,6.64773,58.56,58.56,0,0,0,1.82654,6.47792l.04858.13976-.02885.12753-.82779,3.66032-.01761.07784-.02352.03465a1.1922,1.1922,0,0,1-.64241.489,2.29376,2.29376,0,0,1-.60992.1169,4.05067,4.05067,0,0,1-1.11018-.09683,9.53446,9.53446,0,0,1-1.97335-.68544,28.02907,28.02907,0,0,0-3.65638-1.56809A74.63984,74.63984,0,0,0,91.872,151.31412Z" transform="translate(-19.83217 -2.08821)"/><path d="M125.70269,133.76291a61.55893,61.55893,0,0,0,5.4338,3.02794l-.19025-.03481a26.5898,26.5898,0,0,1,9.79367.92153,31.49011,31.49011,0,0,1,8.808,4.28239,42.70939,42.70939,0,0,1,7.5123,6.28276,18.65573,18.65573,0,0,1,2.845,4.07216A10.506,10.506,0,0,1,161.181,157.225l-.65676-.53866a16.71521,16.71521,0,0,1,4.87213-.41231,7.77681,7.77681,0,0,1,2.45671.54472,5.61475,5.61475,0,0,1,2.04687,1.53407,7.61376,7.61376,0,0,1,1.7294,4.57447,10.992,10.992,0,0,1-.862,4.71036l-.09454-.0326a12.15679,12.15679,0,0,0,.39892-4.62625,7.42945,7.42945,0,0,0-1.80458-4.061,4.71545,4.71545,0,0,0-1.76791-1.21124,7.73835,7.73835,0,0,0-2.17182-.40592,18.03729,18.03729,0,0,0-4.55194.419l-.68618.14652.02922-.68535a9.6656,9.6656,0,0,0-1.06334-4.44978,19.83774,19.83774,0,0,0-2.578-3.99243,33.70633,33.70633,0,0,0-7.09856-6.52944,26.056,26.056,0,0,0-8.85319-3.72507,33.73877,33.73877,0,0,0-9.50527-1.05633l-.11865.00583-.072-.04071a34.28907,34.28907,0,0,1-5.18591-3.54921Z" transform="translate(-19.83217 -2.08821)"/><path d="M116.53867,127.42748a5.12247,5.12247,0,0,1,2.40423.3549,8.21159,8.21159,0,0,1,2.1292,1.21083,10.40874,10.40874,0,0,1,1.68721,1.74741,14.44013,14.44013,0,0,1,1.41209,1.889,13.89345,13.89345,0,0,1-1.99079-1.36547c-.59255-.50729-1.12861-1.02644-1.72808-1.48672A16.533,16.533,0,0,0,116.53867,127.42748Z" transform="translate(-19.83217 -2.08821)"/><path d="M109.22808,155.36971a2.68566,2.68566,0,0,1-1.87316.748,2.39453,2.39453,0,0,1-1.88719-.748,7.92777,7.92777,0,0,1,1.86826-.25123A5.70773,5.70773,0,0,1,109.22808,155.36971Z" transform="translate(-19.83217 -2.08821)"/><path d="M107.45182,153.51581c.58718-2.62331,1.297-5.21927,2.11161-7.78237.81317-2.5634,1.69143-5.10965,2.69748-7.60783q1.49508-3.75226,3.29674-7.38042a64.1851,64.1851,0,0,1,4.12466-6.96574l1.76587-2.56187-1.12648,2.89114c-1.32456,3.39957-2.64458,6.81468-3.76043,10.29375-.569,1.73594-1.11114,3.48156-1.56472,5.24978a33.63953,33.63953,0,0,0-1.0499,5.34709l-.36967-.14187c2.68993-3.63642,5.48962-7.191,8.53255-10.55156a67.96211,67.96211,0,0,1,4.79448-4.83869,22.05532,22.05532,0,0,1,5.65943-3.97583l2.40849-1.07824-1.82946,1.93219c-2.145,2.26542-4.26778,4.56549-6.32476,6.9127-1.03056,1.17273-2.03636,2.3645-3.034,3.55939a37.5109,37.5109,0,0,0-2.77568,3.71155l-.5721-.57378a21.78807,21.78807,0,0,1,3.95248-1.6114,29.76185,29.76185,0,0,1,4.12265-.94251,27.93465,27.93465,0,0,1,4.2005-.34827,33.872,33.872,0,0,1,4.1946.21726l-.009.09959a33.589,33.589,0,0,0-8.2901.57254,29.132,29.132,0,0,0-3.99483,1.08536,22.6954,22.6954,0,0,0-3.74848,1.64514l-1.396.8011.82384-1.37492a38.24484,38.24484,0,0,1,2.74945-3.878c.96933-1.24132,1.97942-2.4465,3.01144-3.62976q3.09186-3.5562,6.3267-6.97495l.579.8539a21.23057,21.23057,0,0,0-5.41574,3.71559c-1.67148,1.48226-3.2678,3.06244-4.81508,4.69258-3.07453,3.27745-6.0457,6.678-8.82077,10.2255l-.46238.59108.09261-.733a38.68911,38.68911,0,0,1,1.1475-5.39273c.49712-1.76361.99274-3.52653,1.53776-5.27454,1.10666-3.49063,2.19336-6.98613,3.4224-10.44172l.63935.32925c-1.40048,2.26949-2.74357,4.57353-3.9322,6.96552-1.18942,2.38939-2.34053,4.80284-3.35934,7.27664-1.01275,2.47491-2.00481,4.962-2.90523,7.48514-.891,2.52557-1.76485,5.06158-2.53823,7.63055Z" transform="translate(-19.83217 -2.08821)"/><path d="M131.109,153.13791a3.32555,3.32555,0,0,1,.15768,4.82111c-.03718-.91366-.008-1.64583-.04233-2.41175C131.21086,154.7807,131.13348,154.051,131.109,153.13791Z" transform="translate(-19.83217 -2.08821)"/><path d="M107.544,179.84529a50.70482,50.70482,0,0,0,4.90751,6.63829,21.25222,21.25222,0,0,0,6.25015,5.16483l.44355.22-.31925.34583a10.10764,10.10764,0,0,1-6.50782,2.99969,17.13343,17.13343,0,0,1-7.08357-.946,26.30886,26.30886,0,0,1-3.27112-1.41589c-.52461-.27565-1.06975-.5167-1.5768-.82111l-1.50869-.93336a34.28824,34.28824,0,0,1-2.89358-2.03672c-.95839-.68625-1.86525-1.44021-2.757-2.2095a41.7395,41.7395,0,0,1-8.95677-10.82607,26.587,26.587,0,0,1-2.70193-6.50682,15.65172,15.65172,0,0,1-.36607-7.05305,8.65949,8.65949,0,0,1,1.41671-3.312,7.13443,7.13443,0,0,1,2.81275-2.30765,10.42215,10.42215,0,0,1,7.14486-.3099,17.76793,17.76793,0,0,1,6.24415,3.49978,31.72615,31.72615,0,0,1,4.86669,5.19994,29.92626,29.92626,0,0,1,3.63,6.14082,7.29024,7.29024,0,0,1,.54515,1.81429,4.92436,4.92436,0,0,1-.27878,1.93977,9.50631,9.50631,0,0,1-1.84388,3.2033,8.19873,8.19873,0,0,1-3.03189,2.15,6.84549,6.84549,0,0,1-3.72678.24687,12.95758,12.95758,0,0,1-6.01661-3.92349l.63175-.46169a13.07842,13.07842,0,0,0,2.95825,3.43061,8.6,8.6,0,0,0,4.09094,1.86958,4.73323,4.73323,0,0,0,1.133.09045,4.48543,4.48543,0,0,0,1.13932-.05967c.37626-.06519.76236-.094,1.13415-.18811l1.1-.3584a5.31926,5.31926,0,0,0,1.06347-.46091l1.04209-.52464c.65266-.42262,1.28985-.87538,1.93861-1.31351l.063.07765c-.62916.4692-1.25013.95551-1.89162,1.41413l-1.0329.58217a5.52177,5.52177,0,0,1-1.066.522,8.95976,8.95976,0,0,1-4.69539.72515,9.18734,9.18734,0,0,1-4.42411-1.85205,13.07325,13.07325,0,0,1-3.24289-3.57244l-1.7305-2.82812,2.3623,2.36641a12.16,12.16,0,0,0,5.6359,3.5583,5.87923,5.87923,0,0,0,3.17762-.27029,7.2705,7.2705,0,0,0,2.6266-1.88933,8.50282,8.50282,0,0,0,1.62529-2.84639,3.99,3.99,0,0,0,.22966-1.50788,6.43979,6.43979,0,0,0-.479-1.53184,31.82842,31.82842,0,0,0-3.49683-5.92584,30.74267,30.74267,0,0,0-4.65343-5.08516,17.29411,17.29411,0,0,0-5.87553-3.40332,9.72931,9.72931,0,0,0-6.60325.1394,7.02114,7.02114,0,0,0-4.01648,5.07651,14.77687,14.77687,0,0,0,.21055,6.85011,25.71924,25.71924,0,0,0,2.6166,6.44573,37.91774,37.91774,0,0,0,9.08192,10.515,42.79358,42.79358,0,0,0,11.9035,7.03528,16.91611,16.91611,0,0,0,6.71558.9632,10.44479,10.44479,0,0,0,3.272-.79453,8.041,8.041,0,0,0,2.74207-1.84715l.12426.56558a21.81429,21.81429,0,0,1-6.30237-5.50751,40.529,40.529,0,0,1-2.46842-3.3542,41.516,41.516,0,0,1-2.14811-3.5573Z" transform="translate(-19.83217 -2.08821)"/><path d="M133.26305,147.769a22.60718,22.60718,0,0,1-1.67029,18.34536,13.489,13.489,0,0,0,1.67029-18.34536Z" transform="translate(-19.83217 -2.08821)"/><path d="M155.67368,148.37348a15.85407,15.85407,0,0,1-6.18074-1.81811,8.68914,8.68914,0,0,1-4.09017-4.83764,27.605,27.605,0,0,0,10.62482,6.34983C155.86167,148.19132,155.8396,148.24972,155.67368,148.37348Z" transform="translate(-19.83217 -2.08821)"/><path d="M143.32579,166.72084a6.82841,6.82841,0,0,1,6.91,1.99507c-1.23335-.32147-2.3177-.70726-3.44827-1.02084C145.66444,167.35564,144.54063,167.1041,143.32579,166.72084Z" transform="translate(-19.83217 -2.08821)"/><path d="M156.90278,162.39557a6.65364,6.65364,0,0,1-1.85182-3.82869,6.89414,6.89414,0,0,1,.04335-2.21271,3.07723,3.07723,0,0,1,1.22746-2.06021l.26088-.17616.25194.16174a12.478,12.478,0,0,1,3.83476,3.759,36.48959,36.48959,0,0,0-4.32463-2.93487l.51248-.01442a2.36578,2.36578,0,0,0-.7989,1.46225,8.44772,8.44772,0,0,0-.1445,1.93744A10.06168,10.06168,0,0,0,156.90278,162.39557Z" transform="translate(-19.83217 -2.08821)"/><path d="M140.10517,167.83754c.07093.85634.056,1.53061.09233,2.23724.01485.70742.07586,1.3781.06225,2.23828a3.03881,3.03881,0,0,1-.15458-4.47552Z" transform="translate(-19.83217 -2.08821)"/><path d="M159.59755,163.45858a4.10058,4.10058,0,0,1,.2761-4.87273c.71156-.817,1.73874-1.32537,2.39044-2.19091a4.56175,4.56175,0,0,0,.80264-2.8432,13.57967,13.57967,0,0,0-.50384-2.96088,6.16452,6.16452,0,0,1,1.18724,4.70942,8.17438,8.17438,0,0,0,.99564-5.51164c.57837,2.49609.55965,5.37632-1.11256,7.31762a14.59132,14.59132,0,0,1-1.978,1.71966,5.64792,5.64792,0,0,0-1.69882,1.96929,2.41,2.41,0,0,0,.19476,2.48319C160.00764,163.37334,159.741,163.36364,159.59755,163.45858Z" transform="translate(-19.83217 -2.08821)"/><path d="M143.765,176.3917a5.26682,5.26682,0,0,1,2.8979-4.49395,13.68966,13.68966,0,0,1,5.60764-1.381,21.1448,21.1448,0,0,0-4.16744-.27123,7.09213,7.09213,0,0,0-3.89809,1.33954,5.00922,5.00922,0,0,0-1.941,3.8914,6.68064,6.68064,0,0,1-5.46747-5.09792,6.104,6.104,0,0,0,3.74326,5.23074,9.14515,9.14515,0,0,1-7.94472-3.179,10.5527,10.5527,0,0,0,9.65332,4.407,2.17631,2.17631,0,0,1,.8554.65414C143.13941,177.07642,143.36077,176.49217,143.765,176.3917Z" transform="translate(-19.83217 -2.08821)"/><path d="M165.08908,171.84715a5.9023,5.9023,0,0,1,0-3.0326c.378-2.16929-.62233-4.69824-4.157-2.70017s-4.00146,5.26594-3.26786,6.66645,3.06779-.53353,4.73507-1.00037A3.884,3.884,0,0,1,165.08908,171.84715Z" transform="translate(-19.83217 -2.08821)"/><path class="cls-1" d="M158.65092,169.75553a1.66157,1.66157,0,0,0-.18983.62126.66127.66127,0,0,0,.24659.57593c.31372.21926.7423.02042,1.05755-.19665a9.82189,9.82189,0,0,0,2.18075-2.05845,2.39612,2.39612,0,0,0,.56965-1.16643c.04125-.38206-.04722-.77142-.50864-.811a2.6651,2.6651,0,0,0-1.4089.52846A7.43712,7.43712,0,0,0,158.65092,169.75553Z" transform="translate(-19.83217 -2.08821)"/><path d="M164.10119,164.07071a34.29287,34.29287,0,0,1,2.03124-7.16312,38.86127,38.86127,0,0,1,8.06164-12.5124l1.33-1.31269,1.38231-1.25344c.96813-.78328,1.939-1.55625,2.97325-2.24161q-.66371.65391-1.34163,1.281l-1.29614,1.318-1.26684,1.33828-1.2101,1.386a56.34782,56.34782,0,0,0-7.93032,12.30223A63.80591,63.80591,0,0,0,164.10119,164.07071Z" transform="translate(-19.83217 -2.08821)"/><path d="M166.61419,166.97546a31.52673,31.52673,0,0,1,18.1868-13.5,58.59281,58.59281,0,0,0-18.1868,13.5Z" transform="translate(-19.83217 -2.08821)"/><path d="M156.86833,166.67952a10.14457,10.14457,0,0,1,4.75367-3.93375,6.11875,6.11875,0,0,1,6.0389,1.53737,5.89943,5.89943,0,0,1,1.69,6.04515,6.48117,6.48117,0,0,1-4.20464,4.59066l.18411-.19169a17.79263,17.79263,0,0,1-2.82852,5.87232,12.84593,12.84593,0,0,1-5.0439,4.117,14.92022,14.92022,0,0,1-6.50291.92235,26.66573,26.66573,0,0,1-6.46845-1.20371l-.42122-.13058.09638-.46385a13.06037,13.06037,0,0,0,.26314-2.85343,3.2806,3.2806,0,0,0-.782-2.3668l-.853-.72422,1.09278-.1867a27.71053,27.71053,0,0,0,3.4868-.82334,14.06932,14.06932,0,0,0,1.6568-.60039,3.90808,3.90808,0,0,0,1.34921-.88505l-.08693.336a7.11369,7.11369,0,0,1,.41087-3.0334,8.26751,8.26751,0,0,1,1.51647-2.57907,13.97513,13.97513,0,0,1,2.12535-2.02088A8.85127,8.85127,0,0,1,156.86833,166.67952Zm.05815.08136a8.71466,8.71466,0,0,0-2.35164,1.62137,16.53992,16.53992,0,0,0-1.91161,2.10029,7.67216,7.67216,0,0,0-1.24891,2.457,6.39636,6.39636,0,0,0-.27257,2.65942l.026.19785-.113.13853a4.67506,4.67506,0,0,1-1.62649,1.19463,13.86158,13.86158,0,0,1-1.75579.71059,28.65407,28.65407,0,0,1-3.62283.887l.23975-.91076a3.05374,3.05374,0,0,1,.94525,1.51871,6.18913,6.18913,0,0,1,.24615,1.61674,12.25313,12.25313,0,0,1-.33279,3.1214l-.32469-.59418a27.38212,27.38212,0,0,0,6.193,1.30742,15.25738,15.25738,0,0,0,6.2462-.574,11.01072,11.01072,0,0,0,2.75377-1.53466,13.28563,13.28563,0,0,0,2.23218-2.26889,14.07541,14.07541,0,0,0,1.613-2.75712,13.141,13.141,0,0,0,.98631-3.01981l.0257-.13794.15866-.054a5.132,5.132,0,0,0,2.28224-1.71115,7.58929,7.58929,0,0,0,1.2309-2.62392,5.39767,5.39767,0,0,0-1.46424-5.2217,5.65458,5.65458,0,0,0-5.28233-1.55687,8.16987,8.16987,0,0,0-2.62979,1.35671A14.15936,14.15936,0,0,0,156.92648,166.76088Z" transform="translate(-19.83217 -2.08821)"/><path d="M135.09033,183.95732a48.54421,48.54421,0,0,1,8.92889-5.71019,39.06333,39.06333,0,0,1,4.90321-2.0693,20.2128,20.2128,0,0,1,5.20125-1.1155,44.295,44.295,0,0,0-4.9205,1.8436c-1.60152.69165-3.1747,1.45377-4.73791,2.23555-1.57164.76657-3.11835,1.58879-4.67765,2.39432C138.23675,182.3569,136.6674,183.15317,135.09033,183.95732Z" transform="translate(-19.83217 -2.08821)"/><path d="M156.56408,176.68829c-.75943,2.04218-1.81944,3.936-2.6867,5.90911-.889,1.964-1.76963,3.92589-2.55159,5.926-.80236,1.99193-1.50417,4.01933-2.135,6.071a53.68833,53.68833,0,0,0-1.4753,6.292,27.35162,27.35162,0,0,1,.16546-3.26176c.14677-1.08013.33221-2.15729.56553-3.22448a41.457,41.457,0,0,1,1.95052-6.24575,52.20757,52.20757,0,0,1,2.79661-5.90166q.79586-1.42456,1.63875-2.8177C155.40361,178.51325,156.048,177.62845,156.56408,176.68829Z" transform="translate(-19.83217 -2.08821)"/><path d="M130.11679,175.668a17.17474,17.17474,0,0,1,4.255-.97661,15.93127,15.93127,0,0,1,4.41666.12316,8.72355,8.72355,0,0,1,4.10267,1.81936,6.05475,6.05475,0,0,1,1.42034,1.76276,6.55654,6.55654,0,0,1,.61372,2.11918,6.91821,6.91821,0,0,0-2.51193-3.265,9.72481,9.72481,0,0,0-3.80573-1.45338,23.28167,23.28167,0,0,0-4.19427-.32979C132.99462,175.482,131.56254,175.53824,130.11679,175.668Z" transform="translate(-19.83217 -2.08821)"/><path d="M116.906,190.95313c.84261.50756,1.71431.97055,2.59816,1.3952a11.57131,11.57131,0,0,0,2.73523.97365l-.22515.119a7.14345,7.14345,0,0,1,3.36937-3.48062,7.40092,7.40092,0,0,1,4.86028-.33787c3.204.67955,6.013,2.43855,8.64778,4.17318,1.32683.86708,2.657,1.741,3.99991,2.52817a16.86717,16.86717,0,0,0,4.32463,1.62815,43.15558,43.15558,0,0,0,9.3435,1.11039l-.28627.26486a5.73754,5.73754,0,0,1,2.11454-3.81352,11.33806,11.33806,0,0,1,1.94894-.97172c.64429-.30648,1.4563-.36705,1.54686-1.04578a4.94652,4.94652,0,0,1,.93407-1.9883.90045.90045,0,0,1,.58467-.25445.73467.73467,0,0,1,.33946.07658,1.20239,1.20239,0,0,1,.24332.19852,2.86716,2.86716,0,0,1,.54974.9809,5.15543,5.15543,0,0,1-.293,4.25788l-.07339-.24163a20.91247,20.91247,0,0,1,2.31755,1.17791,16.98892,16.98892,0,0,0,2.11775,1.42867,5.61416,5.61416,0,0,0,1.16362.42848,7.16979,7.16979,0,0,1,1.26347.40321,3.3043,3.3043,0,0,1,1.1351.78937,2.04679,2.04679,0,0,1,.5047,1.34885,2.62654,2.62654,0,0,1-.10388.70976,1.44876,1.44876,0,0,1-.4151.671,2.01259,2.01259,0,0,1-1.40489.44688,2.35163,2.35163,0,0,1-.73055-.12848,1.60644,1.60644,0,0,1-.18992-.08412.7063.7063,0,0,0-.09061-.03264,1.16972,1.16972,0,0,0-.25165-.04308,2.29722,2.29722,0,0,0-1.08963.1718c-.33545.17737-.38792.28073-.30092.62546a2.839,2.839,0,0,0,.59456.94563,9.51045,9.51045,0,0,0,.88176.866,5.87244,5.87244,0,0,1,.98293.96006,2.59592,2.59592,0,0,1,.502,1.42452,2.519,2.519,0,0,1-.43335,1.46043,1.46136,1.46136,0,0,1-.32329.3516,1.39367,1.39367,0,0,1-.43776.18977,2.34351,2.34351,0,0,1-.79018.04451,6.71537,6.71537,0,0,1-1.34652-.30312c-.8503-.26866-1.64276-.6277-2.4261-.89857a2.622,2.622,0,0,0-.51355-.13716c-.143.01323-.05288-.0205-.10494.03343a1.38685,1.38685,0,0,0-.12662.43538,1.8802,1.8802,0,0,0-.01921.52176c.0735.76152.35334,1.59166.50051,2.48843a2.68157,2.68157,0,0,1-.11219,1.5782,1.35957,1.35957,0,0,1-.79464.62346,2.46189,2.46189,0,0,1-.80378.10475,3.674,3.674,0,0,1-2.61262-1.30324,4.90549,4.90549,0,0,1-1.11633-2.6139l.635.44732a5.60075,5.60075,0,0,1-1.90544-.01318,5.90686,5.90686,0,0,1-1.77286-.59328,6.17324,6.17324,0,0,1-1.50314-1.09694,8.03893,8.03893,0,0,1-1.148-1.43234l.56878.22371a37.32439,37.32439,0,0,1-8.74557.9672,39.2,39.2,0,0,1-8.71494-.97945,26.94524,26.94524,0,0,1-8.09169-3.34367,19.8993,19.8993,0,0,1-6.19747-6.08564l.08377-.05462a20.07382,20.07382,0,0,0,6.372,5.71695,26.87143,26.87143,0,0,0,8.0015,3.01583,38.34129,38.34129,0,0,0,8.53945.7853,39.94766,39.94766,0,0,0,8.48555-1.01244l.35981-.08713.2093.31095a7.01537,7.01537,0,0,0,.99745,1.234,5.135,5.135,0,0,0,1.25975.91293,4.86192,4.86192,0,0,0,1.4693.4847,4.67472,4.67472,0,0,0,1.50913.01524l.5561-.09564.07911.54312a4.02825,4.02825,0,0,0,.86346,2.0627,2.651,2.651,0,0,0,1.84987.97032c.34221.02988.66879-.10895.67668-.1775a1.95989,1.95989,0,0,0,.02173-.95594c-.11627-.80044-.39218-1.614-.48024-2.56636a2.91525,2.91525,0,0,1,.038-.76078,2.16575,2.16575,0,0,1,.269-.78135.98144.98144,0,0,1,.45471-.39129,1.13912,1.13912,0,0,1,.54535-.0678,3.37913,3.37913,0,0,1,.72892.19283c.83629.30147,1.60836.66179,2.39476.91867a6.28677,6.28677,0,0,0,1.15723.28494,1.51748,1.51748,0,0,0,.48937-.0106.58976.58976,0,0,0,.154-.054c.02189-.03448.04783-.02788.10649-.12291a1.6363,1.6363,0,0,0-.0163-1.93683,5.2595,5.2595,0,0,0-.84585-.8445,10.25047,10.25047,0,0,1-.93561-.95747,3.38887,3.38887,0,0,1-.717-1.24841,1.23061,1.23061,0,0,1,.0634-.8831,1.29719,1.29719,0,0,1,.65778-.5562,2.93416,2.93416,0,0,1,1.43431-.18851,1.77958,1.77958,0,0,1,.37912.07974,1.2499,1.2499,0,0,1,.20694.08887.971.971,0,0,0,.10315.04852,1.75488,1.75488,0,0,0,.53.1068,1.44606,1.44606,0,0,0,1.0065-.26753.88219.88219,0,0,0,.26414-.40158,2.07621,2.07621,0,0,0,.09774-.5579,1.89625,1.89625,0,0,0-1.3022-1.71012,6.73118,6.73118,0,0,0-1.17763-.40809,6.03,6.03,0,0,1-1.23689-.49214,19.86618,19.86618,0,0,1-2.12626-1.479,20.62089,20.62089,0,0,0-2.262-1.17629l-.17287-.07963.09941-.16226a4.74585,4.74585,0,0,0,.28318-3.97384c-.21477-.612-.69959-1.38528-1.19435-.86167a4.76492,4.76492,0,0,0-.8169,1.84991,1.39609,1.39609,0,0,1-.25744.54562,1.43233,1.43233,0,0,1-.49593.34851c-.3416.15714-.66934.26833-.99339.40738a9.8288,9.8288,0,0,0-1.83185.97188,5.24044,5.24044,0,0,0-1.79538,3.50842l-.033.26168-.25352.00338a39.94051,39.94051,0,0,1-9.55269-.87814,17.69707,17.69707,0,0,1-4.57039-1.67535c-1.40634-.79862-2.70349-1.71242-4.02746-2.58922a25.72255,25.72255,0,0,0-8.33768-4.184,6.74866,6.74866,0,0,0-4.46259.161,6.88112,6.88112,0,0,0-3.23327,3.11818l-.08029.15346-.14514-.03437a11.85514,11.85514,0,0,1-2.77848-1.13443,25.78851,25.78851,0,0,1-2.53318-1.55075Z" transform="translate(-19.83217 -2.08821)"/><path d="M123.27666,191.90431a10.45643,10.45643,0,0,0-.92377,2.51691,22.33717,22.33717,0,0,0-.48057,2.61531c-.13514.87686-.18483,1.76688-.264,2.65489-.0201.446-.03862.89238-.07173,1.3392-.0138.4479-.021.89612-.05067,1.34586l-.1861-.32187a1.95851,1.95851,0,0,0,1.4833.03809,11.16087,11.16087,0,0,0,1.70812-.60906,6.26815,6.26815,0,0,1-1.53821,1.0728,3.71177,3.71177,0,0,1-.94043.31371,1.71209,1.71209,0,0,1-1.12368-.1483l-.16567-.08888-.02062-.23327a20.16334,20.16334,0,0,1,.23906-5.51622,12.93778,12.93778,0,0,1,.79474-2.6719A6.50632,6.50632,0,0,1,123.27666,191.90431Z" transform="translate(-19.83217 -2.08821)"/><path d="M109.2718,194.884c.922,1.01021,1.94438,1.90411,2.94129,2.801a28.97169,28.97169,0,0,0,3.16149,2.44488,15.53186,15.53186,0,0,0,3.48692,1.82492,10.452,10.452,0,0,0,3.92309.60222,7.41106,7.41106,0,0,1-4.14455.146,11.80786,11.80786,0,0,1-3.82095-1.74238,17.357,17.357,0,0,1-3.1485-2.71893A14.57851,14.57851,0,0,1,109.2718,194.884Z" transform="translate(-19.83217 -2.08821)"/><path d="M112.99847,201.864c.61216.13845,1.109.34316,1.63876.41681a11.52507,11.52507,0,0,0,1.58964.145c.53754.03777,1.08749.0098,1.64848.03484a12.69886,12.69886,0,0,1,1.73813.0964,5.7555,5.7555,0,0,1-1.64623.67852,6.6272,6.6272,0,0,1-1.77962.18887,4.81994,4.81994,0,0,1-1.7893-.40387A3.56076,3.56076,0,0,1,112.99847,201.864Z" transform="translate(-19.83217 -2.08821)"/><path d="M144.95636,181.02628a8.79044,8.79044,0,0,1-.376,3.73938,11.548,11.548,0,0,1-1.69063,3.41107,12.32035,12.32035,0,0,1-2.67372,2.69858,12.74958,12.74958,0,0,1-1.5891,1.0186,16.54924,16.54924,0,0,1-1.71907.75019c.4738-.41748.97931-.76358,1.44623-1.15841.45236-.41329.943-.76871,1.35957-1.20752q.32032-.31938.64946-.62406l.59845-.66867a14.53268,14.53268,0,0,0,1.11653-1.39181,16.35227,16.35227,0,0,0,1.77254-3.09589A16.71886,16.71886,0,0,0,144.95636,181.02628Z" transform="translate(-19.83217 -2.08821)"/><path d="M167.15869,173.43256a9.98731,9.98731,0,0,1,.47291,1.7431,9.05937,9.05937,0,0,1,.12873,1.82577,5.21012,5.21012,0,0,1-.35431,1.85776,3.66663,3.66663,0,0,1-1.19931,1.58765l.18025-.45294a5.51185,5.51185,0,0,1-.08739,2.2593,6.0252,6.0252,0,0,1-.91507,2.01635,7.19213,7.19213,0,0,1-1.50651,1.5612c-.26793.23994-.58937.40494-.87406.61888l-.92654.5284.07075-.06911a13.71677,13.71677,0,0,1-2.01837,2.58928,15.28905,15.28905,0,0,1-2.53038,2.10164,19.90671,19.90671,0,0,1-2.90053,1.56305,20.87608,20.87608,0,0,1-3.1063,1.08365l.04263-.01348c-1.43073.50612-2.88181.95627-4.32747,1.42128-1.45432.44124-2.91188.87349-4.39339,1.24l-.03416-.094c1.37095-.6705,2.76585-1.27522,4.164-1.87094,1.40678-.572,2.80818-1.15877,4.22992-1.68962l.00542-.002.03759-.01158,1.50859-.4647c.48874-.19143.998-.33258,1.48194-.536a22.5464,22.5464,0,0,0,2.841-1.356,20.52726,20.52726,0,0,0,2.61121-1.7717,9.348,9.348,0,0,0,2.10586-2.33606l.02884-.04834.04219-.021a6.92573,6.92573,0,0,0,1.70284-1.14137,5.80466,5.80466,0,0,0,1.2254-1.59676,5.924,5.924,0,0,0,.6086-1.87,6.50347,6.50347,0,0,0,.04344-1.9115l-.04167-.29674.222-.15653a3.06985,3.06985,0,0,0,.9573-1.1829,5.67618,5.67618,0,0,0,.44323-1.59151,14.12427,14.12427,0,0,0-.03579-3.48627Z" transform="translate(-19.83217 -2.08821)"/><path d="M139.69482,190.81639a13.40452,13.40452,0,0,0,7.96739,2.62047l1.059-.00247,1.05851-.09949c.71337-.01793,1.4039-.22464,2.11722-.30737l2.10907-.48445c.699-.19472,1.38963-.42255,2.11269-.594-.63031.37838-1.29306.70039-1.94742,1.05552-.68694.26824-1.37354.5614-2.0853.78a14.97172,14.97172,0,0,1-4.43962.65149,11.6335,11.6335,0,0,1-4.41572-.92794A9.01712,9.01712,0,0,1,139.69482,190.81639Z" transform="translate(-19.83217 -2.08821)"/><path d="M157.01532,187.7786c1.25-.41216,2.40823-.73246,3.56192-1.13648.58027-.18359,1.1491-.3981,1.728-.61005.58457-.20584,1.15413-.44986,1.79593-.64059a6.64508,6.64508,0,0,1-3.20529,2.19788,7.77284,7.77284,0,0,1-1.925.38513A5.27918,5.27918,0,0,1,157.01532,187.7786Z" transform="translate(-19.83217 -2.08821)"/><path d="M80.56114,170.12a2.21855,2.21855,0,0,0-.25168.94355c-.04256.34129-.07167.68512-.09422,1.02948-.045.68884-.06794,1.37968-.08253,2.07058-.02559,1.38215-.01583,2.76517.01745,4.14707.03384,1.3819.09589,2.76282.17617,4.14a23.89933,23.89933,0,0,0,.4943,4.05053l.02592.1018-.03619.09482A96.62835,96.62835,0,0,0,77.23017,198.516a86.99993,86.99993,0,0,0-2.02689,12.17,51.7124,51.7124,0,0,0,2.98157,24.21186A26.087,26.087,0,0,0,84.96814,245.023a23.9282,23.9282,0,0,0,10.916,5.40114,43.26626,43.26626,0,0,0,12.28469.82513,84.89223,84.89223,0,0,0,12.24061-1.66713,73.64092,73.64092,0,0,0,11.8182-3.521,93.607,93.607,0,0,0,11.21644-5.14321,115.69167,115.69167,0,0,0,10.54839-6.41957q5.11827-3.45966,9.88653-7.40838c3.20146-2.59835,6.10854-5.50937,9.26834-8.22953a98.1551,98.1551,0,0,1,9.91767-7.52859,94.1175,94.1175,0,0,1,10.74634-6.26618,34.60948,34.60948,0,0,1,5.81184-2.24608,10.19291,10.19291,0,0,1,6.15649-.14407l-.03749.09271a10.01185,10.01185,0,0,0-6.0361.338,37.44208,37.44208,0,0,0-5.68452,2.38671,93.5573,93.5573,0,0,0-10.5711,6.40934,97.35844,97.35844,0,0,0-9.70979,7.63586c-1.55267,1.3634-3.00636,2.79689-4.53021,4.22185-1.52036,1.41679-3.09123,2.77582-4.6797,4.11357a118.67967,118.67967,0,0,1-20.623,13.91647,83.67806,83.67806,0,0,1-23.36339,8.46231,84.65644,84.65644,0,0,1-12.35289,1.47245l-3.113.06564c-1.03754-.026-2.07452-.10254-3.11122-.14676a28.70645,28.70645,0,0,1-3.09627-.32739c-.51406-.07309-1.0316-.125-1.54258-.21561l-1.519-.353a25.3273,25.3273,0,0,1-11.082-5.45217,27.54327,27.54327,0,0,1-7.077-10.17736,47.57384,47.57384,0,0,1-3.2273-12.03973,55.8824,55.8824,0,0,1-.10273-12.47476A87.83121,87.83121,0,0,1,76.46757,198.331a86.09613,86.09613,0,0,1,3.79934-11.85849l-.01024.19626a23.97106,23.97106,0,0,1-.4342-4.19194c-.06127-1.38829-.067-2.77626-.05526-4.1633.01384-1.387.0513-2.77357.12419-4.15881.03824-.69257.0849-1.38487.15369-2.07593.03449-.3455.07555-.69069.13041-1.03476.02719-.172.06023-.34367.10115-.51448a.90863.90863,0,0,1,.23955-.49887Z" transform="translate(-19.83217 -2.08821)"/><path d="M131.77877,246.69559a33.52495,33.52495,0,0,0,5.93647,3.07884,35.61815,35.61815,0,0,0,6.37065,1.9512,33.71824,33.71824,0,0,0,6.5955.76169,37.28423,37.28423,0,0,0,6.60741-.548l.17189-.02954.15925.10339a30.27525,30.27525,0,0,0,10.4321,4.14053,30.88321,30.88321,0,0,0,11.3216.14585,16.2613,16.2613,0,0,0,9.59367-5.54026,13.65351,13.65351,0,0,0,2.62582-4.87579,8.61171,8.61171,0,0,0,.34124-2.69281,3.69664,3.69664,0,0,0-.843-2.33824l-.40783-.43355.53171-.29625a16.47945,16.47945,0,0,0,3.03833-2.23308,16.71187,16.71187,0,0,0,2.47946-2.85534,14.08914,14.08914,0,0,0,2.45524-7.0187l.00148-.02351.00428-.028a5.08525,5.08525,0,0,0-.14428-2.37041,5.14705,5.14705,0,0,0-1.25033-2.028,8.98409,8.98409,0,0,0-1.98993-1.485,11.31047,11.31047,0,0,0-2.32153-.97167l-.93485-.26791.79346-.54494a18.32406,18.32406,0,0,0,3.60246-3.30464,14.86074,14.86074,0,0,0,2.53041-4.187,11.28315,11.28315,0,0,0,.74158-4.82546,13.08258,13.08258,0,0,0-1.32167-4.77356l.08861-.04634a13.32584,13.32584,0,0,1,1.6165,4.78377,11.30116,11.30116,0,0,1-.55825,5.06645,14.78675,14.78675,0,0,1-2.4925,4.475,19.08491,19.08491,0,0,1-3.70981,3.56264l-.14136-.81268a12.15607,12.15607,0,0,1,2.566.9971,9.02269,9.02269,0,0,1,2.24979,1.62993,5.90494,5.90494,0,0,1,1.69658,5.269l.00572-.05112a14.87239,14.87239,0,0,1-.79065,3.95836,14.50661,14.50661,0,0,1-1.85051,3.58151,17.71088,17.71088,0,0,1-2.67054,2.99289,17.30546,17.30546,0,0,1-3.27585,2.33245l.12382-.72957a4.47066,4.47066,0,0,1,1.04619,2.94037,9.43409,9.43409,0,0,1-.44214,2.95584,13.77837,13.77837,0,0,1-2.92268,5.05166,17.46541,17.46541,0,0,1-10.00281,5.4589,24.03013,24.03013,0,0,1-2.85927.34121c-.95358.11377-1.91409.10633-2.87324.13691a37.99967,37.99967,0,0,1-5.74007-.44883,32.69016,32.69016,0,0,1-5.60089-1.41012,23.44712,23.44712,0,0,1-5.24533-2.52841l.33078.07376a30.729,30.729,0,0,1-6.78417.5484,34.389,34.389,0,0,1-6.741-.88117,36.2418,36.2418,0,0,1-6.40538-2.22043,29.61679,29.61679,0,0,1-5.79907-3.458Z" transform="translate(-19.83217 -2.08821)"/><path d="M175.70759,224.62993c1.96372-.09079,3.90366-.306,5.82608-.561a43.21659,43.21659,0,0,0,5.67662-1.14951,28.07443,28.07443,0,0,0,5.35773-2.0746,19.28036,19.28036,0,0,0,4.5977-3.49749,13.83528,13.83528,0,0,1-4.20395,4.1712,21.56875,21.56875,0,0,1-5.48436,2.36394,28.9862,28.9862,0,0,1-5.86511.95982A27.50353,27.50353,0,0,1,175.70759,224.62993Z" transform="translate(-19.83217 -2.08821)"/><path d="M167.46311,241.45358a35.27413,35.27413,0,0,0,3.67121.89821,34.9187,34.9187,0,0,0,3.70862.59,35.27818,35.27818,0,0,0,7.4441.05481,24.36313,24.36313,0,0,0,7.15407-1.859l1.69063-.7852,1.58012-.9954c.26575-.16436.54134-.31768.80115-.49238l.73052-.5901c.48533-.39767.98138-.78816,1.487-1.176a19.16881,19.16881,0,0,1-5.96106,4.73465,21.05217,21.05217,0,0,1-7.37426,2.15689,29.268,29.268,0,0,1-14.93213-2.53652Z" transform="translate(-19.83217 -2.08821)"/><path d="M82.66935,254.57182a31.26534,31.26534,0,0,1,5.26356-2.7387,30.91171,30.91171,0,0,1,5.64855-1.81641,30.9105,30.9105,0,0,1-5.26356,2.73868A31.26793,31.26793,0,0,1,82.66935,254.57182Z" transform="translate(-19.83217 -2.08821)"/><path d="M148.72433,252.80983c-.11922,1.38321-.25087,2.76-.33136,4.14148-.11368,1.37732-.19493,2.75647-.25737,4.13486-.11185,2.75689-.19765,5.51107-.12675,8.26.03581,2.74527.31053,5.4877.55241,8.239.12859,1.37326.28529,2.74417.49359,4.10675a25.45562,25.45562,0,0,0,.81715,4.05527,32.112,32.112,0,0,1-2.07383-8.0651,63.36119,63.36119,0,0,1-.78847-8.31326,67.75839,67.75839,0,0,1,.36238-8.34033A63.39058,63.39058,0,0,1,148.72433,252.80983Z" transform="translate(-19.83217 -2.08821)"/><path d="M80.15145,183.15468a16.578,16.578,0,0,0,.8777,3.22424,4.52551,4.52551,0,0,0,1.9937,2.35349,3.17825,3.17825,0,0,0,2.86366.00325,10.54156,10.54156,0,0,0,2.60636-1.86577l.59611-.51283.20663.75259a6.06714,6.06714,0,0,0,8.91641,3.55087,5.9682,5.9682,0,0,1-5.69371,1.04991,6.5804,6.5804,0,0,1-4.17457-4.34083l.80253.2397a10.274,10.274,0,0,1-2.88928,2.01533,3.93166,3.93166,0,0,1-3.63952-.19551,5.1776,5.1776,0,0,1-2.07037-2.87631A12.75855,12.75855,0,0,1,80.15145,183.15468Z" transform="translate(-19.83217 -2.08821)"/><path d="M146.21725,127.42748a13.36341,13.36341,0,0,1-.93687,3.38922,14.30757,14.30757,0,0,1-1.72046,3.1028,9.84161,9.84161,0,0,1-2.58013,2.49792,6.05564,6.05564,0,0,1-3.39914,1.00481,9.21512,9.21512,0,0,0,2.939-1.635,13.60637,13.60637,0,0,0,2.23508-2.45967A43.91419,43.91419,0,0,0,146.21725,127.42748Z" transform="translate(-19.83217 -2.08821)"/><path d="M29.83405,80.48616c3.23532.5918,6.45381,1.26952,9.672,1.95178q4.81621,1.07117,9.60918,2.24947C55.50263,86.2701,61.83963,88.058,68.13072,90.0026q4.70654,1.49634,9.35278,3.18071c3.09542,1.124,6.181,2.28624,9.19605,3.62047,6.01278,2.64417,12.03483,5.56615,17.0689,9.84565a54.12452,54.12452,0,0,0-8.39885-5.1056c-2.92-1.48994-5.928-2.80252-8.96743-4.03064-6.07735-2.46308-12.283-4.61471-18.552-6.558-6.24688-2.01829-12.5731-3.78761-18.90757-5.52667C42.5849,83.69739,36.21417,82.085,29.83405,80.48616Z" transform="translate(-19.83217 -2.08821)"/><path d="M31.13409,130.05013a127.64024,127.64024,0,0,1,16.69047-7.85041A146.88529,146.88529,0,0,1,65.45088,116.681c2.9879-.76025,6.02472-1.29569,9.0501-1.878,1.51878-.257,3.04826-.4519,4.5715-.68072l2.28716-.3283,2.30326-.19535a112.912,112.912,0,0,1,18.44066-.28653l-4.60738.07732-2.3.02869c-.766.03067-1.53095.10153-2.29593.15028L88.312,113.85l-4.56685.51346-2.28124.26206-2.26945.35274c-1.51156.24249-3.02868.45075-4.535.721-3.00116.60777-6.01062,1.17193-8.9727,1.95234a163.12854,163.12854,0,0,0-17.5942,5.26539l-4.306,1.61057c-1.41737.582-2.85261,1.125-4.25717,1.73971C36.68422,127.41811,33.91307,128.73633,31.13409,130.05013Z" transform="translate(-19.83217 -2.08821)"/><path d="M133.84581,105.6101c5.78524-3.79786,11.78817-7.25607,17.87239-10.558,6.09217-3.29,12.31526-6.33709,18.623-9.20184,6.35655-2.753,12.78544-5.35618,19.37082-7.52326a127.82073,127.82073,0,0,1,20.17732-4.87182l-5.05664,1.15153-1.26326.28257-1.24722.35093-2.49109.70914-2.49445.68924c-.82944.23622-1.64331.52782-2.46545.78891-1.63753.54516-3.28617,1.0535-4.91262,1.62813-6.50479,2.308-12.90782,4.89219-19.2111,7.7071-6.32051,2.779-12.51827,5.83027-18.67266,8.96695q-4.6208,2.34424-9.16642,4.83721C139.85636,102.18978,136.84758,103.891,133.84581,105.6101Z" transform="translate(-19.83217 -2.08821)"/><path d="M133.02458,110.54955a121.64587,121.64587,0,0,1,19.21515-1.991,147.43328,147.43328,0,0,1,19.33218.75458c3.21544.3066,6.39792.86166,9.58466,1.37473,1.58915.28033,3.1613.65492,4.74234.97783l2.36766.50455,2.33389.64595a106.08294,106.08294,0,0,1,18.15135,6.60692l-4.52217-1.68746-2.25348-.85149-2.30327-.7095-4.59321-1.44238-4.669-1.17064-2.33492-.57539-2.35817-.47517c-1.57394-.30586-3.138-.66342-4.71922-.92694-3.17119-.48055-6.336-.99908-9.53282-1.27784a162.11172,162.11172,0,0,0-19.21222-.98216l-4.81531.08875c-1.603.08316-3.20891.13741-4.81143.24429Q137.8134,109.92256,133.02458,110.54955Z" transform="translate(-19.83217 -2.08821)"/><path d="M146.21725,103.55679a10.46678,10.46678,0,0,1-2.89961-1.80042,10.349,10.349,0,0,1-2.25382-2.56313,10.349,10.349,0,0,1,2.89963,1.80041A10.46721,10.46721,0,0,1,146.21725,103.55679Z" transform="translate(-19.83217 -2.08821)"/><path d="M142.28735,98.36169a4.17749,4.17749,0,0,1,4.55014-.325,7.19361,7.19361,0,0,1-2.25214.48347A7.31847,7.31847,0,0,1,142.28735,98.36169Z" transform="translate(-19.83217 -2.08821)"/></g></svg>